<svg width="290" height="232" viewBox="0 0 290 232" fill="none" xmlns="http://www.w3.org/2000/svg">
<path d="M73.9998 104C71.9998 108 73.1665 137 73.9998 151L127.5 138V120.5H121C117.5 113.167 108.2 97.6 99 94L100.5 90.5C104 91 108.5 89 108.5 83.5L110.5 82L105 75.5L92 85.5L87.5 92C78.5 92 76.4998 99 73.9998 104Z" fill="#60FFA9"/>
<path d="M284.819 2.16293C284.759 2.10497 284.686 2.06066 284.607 2.03297C284.527 2.00528 284.443 1.99485 284.36 2.00237C204.632 9.08309 135.531 19.2586 135.052 21.2737C132.34 32.5465 126.031 108.986 125.089 120.567L121.477 120.243C116 109.755 110.775 98.8434 99.3542 93.7925L100.502 90.9731C105.146 91.4578 108.755 88.8962 108.587 83.4314C110.764 81.4443 111.422 83.1147 106.515 77.0562C108.515 74.994 108.494 68.0577 103.203 68.9871C102.038 68.2029 100.675 67.764 99.2704 67.7213C97.8662 67.6785 96.4785 68.0336 95.2676 68.7456C95.2676 68.7456 92.1419 61.7105 86.6744 65.3827C81.207 69.0549 81.4001 86.3568 78.967 88.553C78.967 88.553 86.446 85.635 88.4797 81.4369C88.959 83.0808 89.978 84.5154 91.3726 85.5098C90.1243 87.3315 89.1279 89.3134 88.4104 91.4018C77.6421 91.0954 72.7715 100.913 72.972 110.901C72.972 110.901 73.3654 130.922 73.7575 150.166C67.7919 151.033 3.76406 161.472 5.01818 164.267C5.12871 164.52 5.37482 164.365 5.63566 164.267C5.54939 166.339 5.61983 168.415 5.8464 170.477C23.942 179.249 132.563 232.381 149.747 228.83C166.932 225.278 273.911 187.088 273.911 187.088C274.696 182.967 275.005 178.77 274.831 174.579C277.112 171.065 284.992 2.76981 284.999 2.61956C285.004 2.535 284.99 2.45044 284.959 2.37165C284.928 2.29285 284.88 2.22166 284.819 2.16293V2.16293ZM121.16 121.098C131.108 122.009 135.102 122.375 136.863 122.473C137.503 122.546 138.151 122.507 138.779 122.358C139.16 122.251 139.548 122.174 139.941 122.127C140.701 122.053 141.465 122.224 142.121 122.615C142.777 123.007 143.29 123.597 143.586 124.301C142.494 124.063 141.378 123.951 140.261 123.968C134.857 124.92 124.411 131.322 118.256 130.117C115.124 129.502 111.057 125.639 108.908 123.279L108.812 122.811C111.276 120.159 114.881 117.166 118.377 116.182C120.979 121.128 120.795 121.058 121.16 121.098ZM77.0438 161.19L76.9716 151.266L90.4103 156.476C90.3351 158.856 90.2231 162.81 90.1818 165.215C85.9033 163.565 81.5129 162.219 77.0438 161.19V161.19ZM90.1759 165.647C90.1583 166.886 90.1465 168.401 90.1391 169.624C88.4692 168.986 86.7678 168.434 85.0416 167.97C81.5769 168.951 80.6662 169.148 77.1101 170.356L77.0467 161.615C81.3266 163.258 85.7143 164.605 90.1789 165.647H90.1759ZM77.1293 185.404C77.1864 185.331 77.2175 185.24 77.2177 185.147L77.1116 170.67C78.9036 170.291 81.0036 169.811 85.127 168.639C86.726 169.113 87.7193 169.385 90.1376 169.964C90.1155 173.978 90.089 173.915 90.2069 174.089C90.4881 174.405 90.8777 174.603 91.2986 174.646C91.7195 174.688 92.1409 174.571 92.4793 174.317C92.5475 174.279 92.6044 174.224 92.6442 174.157C92.6841 174.09 92.7055 174.013 92.7063 173.936C92.7063 173.936 92.7063 172.626 92.7063 170.727C93.1824 170.921 93.6759 171.069 94.18 171.169L94.8535 193.706C94.8551 193.766 94.8691 193.824 94.8944 193.878C94.9198 193.931 94.956 193.979 95.0008 194.018C95.3847 194.373 95.8859 194.572 96.4082 194.58H96.4333C96.9712 194.58 98.0146 194.183 98.0057 193.681C98.0057 193.534 97.9335 190.097 97.9379 190.315C97.9379 190.15 97.263 157.348 97.2674 157.516C98.2562 157.283 101.204 156.589 104.502 155.807C104.665 157.302 105.48 164.723 106.176 169.938C102.823 168.921 101.261 168.465 97.4811 167.491L97.4929 168.111L97.4811 167.522L97.4929 168.069V167.879C100.86 169.097 103.206 169.851 106.301 170.802C106.534 172.489 106.743 173.865 106.91 174.607C106.91 174.607 107.075 174.676 107.352 174.755C107.352 174.806 107.337 174.862 107.328 174.921C104.137 173.728 100.878 172.721 97.5695 171.906L97.5533 171.205L97.5739 172.168V171.809V172.175C100.757 173.345 104.005 174.333 107.3 175.135C106.527 180.895 107.89 180.228 110.812 179.605C112.561 179.284 114.254 178.708 115.836 177.896C116 178.039 116.208 178.123 116.425 178.132C116.565 185.421 116.493 185.014 116.72 185.203C116.868 185.223 118.549 186.58 119.962 185.203C120.15 185.026 120.11 185.376 119.99 178.994C120.363 179.155 120.727 179.335 121.081 179.534C120.767 180.851 120.832 182.23 121.27 183.512C121.986 184.41 128.491 182.295 129.533 181.826C130.715 182.314 131.944 182.676 133.202 182.906C133.211 191.342 133.159 190.804 133.349 190.975C133.549 191.219 133.808 191.408 134.101 191.523C134.394 191.639 134.712 191.678 135.024 191.635C135.337 191.593 135.633 191.471 135.885 191.282C136.137 191.093 136.336 190.842 136.463 190.554L136.552 184.018L147.724 187.495C145.011 188.452 137.408 191.136 129.82 193.849C121.169 196.942 112.533 200.07 111.104 200.585C96.8739 195.054 67.674 183.753 52.1633 177.901L74.1863 171.627C74.3558 179.623 74.481 185.114 74.481 185.114C74.4825 185.172 74.4965 185.229 74.5219 185.282C74.5473 185.334 74.5836 185.38 74.6284 185.418C74.9548 185.716 75.3677 185.903 75.8074 185.951H75.9312C76.1583 185.95 76.3827 185.901 76.5894 185.807C76.796 185.713 76.9801 185.576 77.1293 185.404V185.404ZM90.7861 156.62L92.1419 157.146C91.94 163.119 91.8648 166.799 91.8353 173.653C91.706 173.72 91.5622 173.754 91.4166 173.753C91.271 173.751 91.1279 173.714 90.9997 173.645C91.0307 166.921 90.96 162.691 90.7861 156.62V156.62ZM92.6915 165.9C92.6577 162.954 92.5987 160.268 92.525 157.298L93.788 157.787L94.0385 166.199C93.6192 165.995 93.1579 165.892 92.6915 165.897V165.9ZM94.0621 166.974L94.1785 170.86C93.7015 170.675 93.2081 170.535 92.7048 170.442C92.7048 169.558 92.7048 167.963 92.693 166.6C93.1113 166.836 93.5819 166.963 94.0621 166.971V166.974ZM130.076 133.108L130.116 134.796C123.906 133.795 119.08 133.055 110.532 131.918C110.408 131.139 110.304 130.495 110.162 129.72C118.179 131.186 122.115 131.85 130.076 133.105V133.108ZM110.093 129.346C109.862 128.105 109.537 126.4 109.048 123.967C111.264 126.579 113.976 128.726 117.028 130.282C115.289 130.033 112.486 129.653 110.093 129.346ZM121.819 183.065C121.774 183.12 121.729 182.933 121.695 182.827C121.498 181.721 121.448 180.594 121.548 179.476C122.95 179.811 124.428 179.595 125.674 178.872C125.596 179.361 125.428 179.629 125.592 179.795C126.647 179.66 127.71 179.603 128.774 179.623C129.76 179.721 130.1 180.57 129.422 181.096C128.995 181.43 128.576 181.311 127.391 181.692C125.55 182.265 123.673 182.715 121.772 183.04C121.794 183.037 121.831 183.045 121.819 183.058V183.065ZM126.061 179.313L126.167 178.368C126.314 177.994 126.478 177.546 126.656 177.042C129.202 177.82 130.34 178.166 133.208 178.845C133.208 178.992 133.208 182.85 133.208 182.606C132.183 182.182 131.124 181.844 130.042 181.597C130.376 181.414 132.169 178.25 126.061 179.306V179.313ZM133.211 178.471C130.656 177.494 129.245 177.051 126.898 176.326C128.987 170.115 132.571 157.03 133.209 154.682C133.211 161.228 133.202 172.081 133.211 178.471ZM111.105 135.802C111.061 135.508 110.886 134.231 110.585 132.282C131.932 136.259 130.878 135.842 130.986 135.417L133.217 135.062C133.217 135.209 133.217 139.186 133.217 138.927C131.223 134.195 116.953 135.564 111.105 135.802ZM120.979 175.16L121.333 179.047C120.917 178.807 120.458 178.651 119.982 178.586C119.918 175.431 119.939 176.476 119.903 174.763C120.183 174.862 120.549 175.001 120.99 175.157L120.979 175.16ZM119.896 174.383C119.787 169.471 119.641 163.848 119.51 158.995L120.932 174.638C120.509 174.529 120.155 174.445 119.906 174.383H119.896ZM118.717 150.276C119.274 188.225 119.223 184.434 119.227 184.702C118.952 184.872 118.632 184.955 118.308 184.94C117.985 184.926 117.674 184.813 117.416 184.618C116.797 150.957 116.907 152.064 116.272 152.212C115.339 152.453 105.67 154.928 97.2615 157.139C97.2615 156.992 97.2055 154.532 97.2099 154.688L118.717 150.276ZM111.993 176.096C112.14 176.096 116.321 175.802 116.048 176.556C115.832 177.169 113.933 177.836 113.322 178.039C112.634 178.268 108.354 179.455 108.127 179.146C107.71 177.759 107.578 176.302 107.738 174.864C109.112 175.234 110.57 175.15 111.892 174.623C111.811 175.357 111.521 176.154 112.003 176.096H111.993ZM112.228 175.543L112.292 174.423C112.306 174.414 112.322 174.406 112.337 174.398C112.337 174.398 112.494 173.756 112.746 172.716C113.561 172.938 115.347 173.411 116.334 173.659C116.346 174.336 116.359 175.002 116.371 175.646C115.025 175.257 113.602 175.222 112.239 175.543H112.228ZM112.9 172.074C113.742 168.602 115.305 162.104 116.075 158.686C116.147 163.305 116.207 166.843 116.327 173.28C115.297 172.904 113.596 172.308 112.911 172.074H112.9ZM136.117 151.522L135.638 190.41C135.546 190.534 135.427 190.636 135.291 190.708C135.154 190.781 135.003 190.822 134.848 190.829C134.694 190.836 134.539 190.808 134.397 190.748C134.254 190.687 134.127 190.596 134.024 190.48C133.937 175.917 133.693 149.272 133.562 135.004C145.78 133.058 151.127 132.177 163.616 130.014C163.383 147.108 163.202 162.197 163.009 179.302C162.787 179.454 162.527 179.543 162.258 179.559C161.989 179.575 161.721 179.518 161.482 179.393C161.062 144.431 161.434 145.183 160.609 145.378C135.539 151.465 136.136 150.864 136.127 151.522H136.117ZM160.334 150.5L160.382 154.225C155.726 152.975 149.85 151.618 143.287 150.376L150.959 148.556C153.383 149.196 156.97 149.979 160.345 150.5H160.334ZM151.669 148.388L160.283 146.342L160.333 150.256C157.471 149.49 153.922 148.749 151.679 148.388H151.669ZM136.987 151.873L142.517 150.56C147.736 151.955 154.476 153.473 160.386 154.538L160.701 179.66C160.702 179.733 160.723 179.804 160.763 179.866C160.802 179.928 160.858 179.977 160.924 180.009C161.349 180.295 161.862 180.42 162.372 180.363C162.881 180.306 163.353 180.07 163.705 179.696C163.815 179.549 163.789 180.838 163.889 155.411C185.082 160.282 208.275 165.603 229.13 170.288C240.962 172.95 250.889 175.165 255.077 176.099C236.923 181.876 210.508 190.308 192.15 196.201C189.464 195.388 161.645 186.944 136.615 179.453L136.987 151.873ZM131 135.05L130.947 132.859C142.803 131.009 150.612 129.778 166.506 127.066L166.576 128.617C152.02 131.126 142.958 132.781 131 135.05ZM130.88 132.503C130.707 132.225 120.73 130.797 120.581 130.777C127.471 130.441 134.156 126.098 140.422 124.737C147.419 125.561 156.883 126.308 164.001 126.602C162.025 126.947 144.326 130.003 130.875 132.503H130.88ZM144.778 124.525C144.531 124.319 144.3 124.095 144.087 123.855C143.923 123.507 143.515 123.07 143.185 122.529C139.894 116.923 144.377 109.299 150.102 110.272C156.383 111.304 157.393 121.346 151.589 124.952C148.896 124.759 147.202 124.633 144.774 124.525H144.778ZM91.7616 85.7189C92.4396 86.0228 93.1752 86.1767 93.9182 86.1701C94.6611 86.1635 95.3939 85.9965 96.0663 85.6806C97.2173 87.5867 99.4824 86.4289 99.2569 86.0415C99.2456 86.0217 99.2304 86.0043 99.2124 85.9903C99.1943 85.9764 99.1736 85.9661 99.1515 85.9602C99.1294 85.9544 99.1064 85.9529 99.0838 85.956C99.0611 85.9591 99.0393 85.9666 99.0196 85.9782C96.8621 86.9298 95.9249 83.8821 96.8724 83.1486C97.9276 82.281 98.8163 83.3931 98.9636 83.4432C98.977 83.4625 98.994 83.479 99.0137 83.4918C99.0335 83.5046 99.0556 83.5133 99.0787 83.5175C99.1018 83.5218 99.1256 83.5214 99.1485 83.5165C99.1715 83.5116 99.1933 83.5022 99.2127 83.4888C99.232 83.4755 99.2486 83.4585 99.2613 83.4387C99.2741 83.419 99.2829 83.3969 99.2871 83.3738C99.2913 83.3507 99.291 83.327 99.286 83.304C99.2811 83.281 99.2717 83.2592 99.2584 83.2399L99.251 83.2266C100.666 82.0923 101.963 80.8186 103.122 79.4248C103.719 78.5204 105.143 78.2464 106.229 77.3287C107.261 78.8665 108.23 80.2747 109.312 81.8332C108.093 82.8142 107.714 82.8643 107.732 83.2502C108.099 91.1764 100.502 90.2278 100.349 90.3206C99.8714 90.2573 99.9967 90.8818 99.0226 93.6481C95.8222 92.3055 92.4051 91.5529 88.9366 91.4268C90.1272 89.6578 91.0772 87.7383 91.7616 85.7189V85.7189ZM88.4665 92.1074C103.576 92.7511 111.378 102.91 118.173 115.784C114.377 116.251 110.814 119.202 108.696 122.233C105.367 106.074 106.902 120.364 110.447 134.574C106.21 136.744 101.601 138.094 96.8621 138.551C96.308 113.678 96.3861 115.101 96.1253 115.051L73.3257 110.753C73.4509 100.667 78.2198 91.6596 88.4665 92.1074V92.1074ZM73.3286 111.109L95.8084 115.528C96.2225 142.107 96.6425 166.727 97.1583 193.482C96.9441 193.63 96.692 193.713 96.4318 193.722H96.423C96.1652 193.717 95.9156 193.631 95.7097 193.476C94.4836 155.43 94.8933 157.266 94.373 157.068C75.4286 149.739 76.559 150.076 76.2848 150.264C75.9238 150.512 76.1006 152.415 76.3895 184.97C76.2276 185.083 76.0316 185.138 75.8343 185.124C75.637 185.11 75.4506 185.028 75.3063 184.893C75.0322 173.949 73.3905 113.332 73.3286 111.113V111.109ZM73.9638 160.247C69.1477 158.565 65.8864 157.52 61.85 156.27C66.2342 155.259 68.1397 154.797 73.8208 153.283C73.868 155.656 73.9166 157.987 73.9682 160.251L73.9638 160.247ZM148.915 219.886C117.171 213.169 7.25673 164.963 5.65334 164.256C11.7206 161.954 43.887 156.41 73.7678 150.677L73.812 152.895C58.4958 155.793 59.7352 155.966 59.7278 156.196C59.7235 156.292 59.7514 156.387 59.8073 156.466C59.8631 156.544 59.9435 156.602 60.0358 156.629C63.2072 157.548 65.0464 158.264 73.9711 160.652C74.008 162.473 74.0979 166.839 74.1907 171.135C54.3665 176.503 48.5233 177.487 50.5305 178.275C89.3831 193.535 99.752 197.403 110.905 201.734C111.175 201.84 110.058 202.254 130.185 194.821C139.617 191.342 149.027 187.814 149.027 187.814C149.099 187.788 149.162 187.74 149.206 187.676C149.249 187.612 149.272 187.536 149.27 187.459C149.267 187.382 149.241 187.307 149.194 187.246C149.147 187.184 149.082 187.139 149.008 187.117L136.568 183.507L136.615 179.951C136.763 179.997 191.994 197.384 192.321 197.275C252.996 177.995 260.655 176.113 257.473 175.419C257.473 175.419 245.121 172.657 229.38 169.178C223.456 167.871 217.051 166.462 210.645 165.053C188.187 160.151 165.721 155.304 163.895 154.912C163.907 151.957 163.907 151.877 163.908 151.362L274.244 174.781C240.054 189.577 148.915 219.89 148.915 219.89V219.886ZM273.949 173.684L163.917 150.882C163.954 140.778 163.98 131.509 163.985 129.947C168.553 129.158 167.309 129.971 167.352 126.528C167.349 126.467 167.332 126.407 167.304 126.352C167.276 126.298 167.237 126.249 167.189 126.211C167.141 126.172 167.086 126.144 167.026 126.128C166.967 126.112 166.905 126.108 166.844 126.117L166.033 126.256C160.523 125.615 157.906 125.408 152.475 125.013C154.342 123.682 155.664 121.721 156.197 119.493C156.73 117.264 156.438 114.918 155.375 112.887C150.63 104.106 137.827 111.791 141.951 121.623C140.624 121.192 139.193 121.199 137.871 121.644C136.319 121.541 133.075 121.26 132.008 121.17C133.011 111.139 140.4 38.1646 143.209 28.5665C173.527 25.1064 252.735 16.0062 272.735 14C271.572 35.1567 265.788 138.223 263.084 159.102C40.0348 123.722 263.673 160.201 263.821 160.091C265.54 158.814 274.344 13.4697 273.77 12.9173C273.708 12.8586 273.635 12.8138 273.554 12.7861C273.474 12.7584 273.388 12.7484 273.304 12.7568C254.722 14.6127 142.569 27.3851 142.376 27.9699C139.555 36.6459 132.393 111.968 131.534 121.134C129.509 120.961 127.369 120.77 125.567 120.61C126.612 108.54 133.198 33.6557 135.912 21.7877C170.249 14.1929 248.705 6.333 283.794 3.22791C281.888 48.0234 277.866 128.548 273.949 173.684Z" fill="#60FFA9"/>
<path d="M142.5 231.5C133.7 232.7 43.8333 193 0 173L117.5 143L128.5 28.5C174.333 22.6667 268.8 11 280 11L269.5 181L266 195C228.5 206.667 151.3 230.3 142.5 231.5Z" fill="#60FFA9"/>
<path d="M77.9998 102C75.9998 106 77.1665 135 77.9998 149L131.5 136V118.5H125C121.5 111.167 112.2 95.6 103 92L104.5 88.5C108 89 112.5 87 112.5 81.5L114.5 80L109 73.5L96 83.5L91.5 90C82.5 90 80.4998 97 77.9998 102Z" fill="#D9D9D9"/>
<path d="M152.5 221.5C143.7 222.7 53.8333 183 10 163L127.5 133L138.5 18.5C184.333 12.6667 278.8 1 290 1L279.5 171L276 185C238.5 196.667 161.3 220.3 152.5 221.5Z" fill="#D9D9D9"/>
<circle cx="157.5" cy="65.5" r="8.5" fill="#60FFA9"/>
<circle cx="185.5" cy="65.5" r="8.5" fill="#60FFA9"/>
<circle cx="217.5" cy="65.5" r="8.5" fill="#60FFA9"/>
<circle cx="245.5" cy="63.5" r="8.5" fill="#60FFA9"/>
<circle cx="153.5" cy="115.5" r="8.5" fill="#60FFA9"/>
<circle cx="180.5" cy="116.5" r="8.5" fill="#60FFA9"/>
<circle cx="212.5" cy="116.5" r="8.5" fill="#60FFA9"/>
<circle cx="241.5" cy="118.5" r="8.5" fill="#60FFA9"/>
<path d="M150.093 48.9401C150.139 48.9809 150.201 49.0023 150.264 48.9998C171.5 48.345 261.904 41.3164 262.187 40.518C262.545 39.3504 262.836 38.1649 263.06 36.9668C263.947 32.6116 264.468 30.9596 263.412 31.0007C258.652 31.2152 151.173 39.4669 150.976 40.143C150.595 41.5492 150.332 42.9823 150.189 44.4287C150.032 45.8733 149.973 47.3262 150.011 48.7782C150.013 48.8091 150.021 48.8394 150.035 48.8672C150.049 48.8951 150.068 48.9199 150.093 48.9401V48.9401ZM151.487 40.4797C208.968 36.2665 253.272 32.711 262.741 32.1769C262.425 34.0477 261.726 37.9853 261.178 39.8021C235.723 41.9627 167.994 47.7867 150.494 48.5353C150.466 45.8203 150.8 43.1131 151.487 40.4797V40.4797Z" fill="#8330C3"/>
<path d="M258.759 97.8246C259.808 95.6923 259.922 88.2339 259.935 88.0948C259.954 87.2533 266.367 87.1142 146.406 86C145.781 85.9931 145.207 89.4774 145.113 90.3843C144.959 91.8182 144.963 93.2632 145.124 94.6963C145.132 94.7476 145.159 94.7949 145.199 94.8301C145.239 94.8653 145.292 94.8863 145.347 94.8897C165.501 96.346 258.35 98.655 258.759 97.8246ZM145.582 94.4529C145.316 91.7809 145.663 89.0863 146.6 86.5508C217.337 87.8333 250.876 88.2575 258.733 88.6122C258.715 91.4375 258.409 94.2547 257.817 97.0248C237.303 96.6882 163.078 95.5212 145.582 94.4529Z" fill="#8330C3"/>
<path d="M159.046 57.0667C154.95 56.4836 150.8 59.7735 150.086 64.9138C149.051 73.1899 157.592 78.2218 163.187 72.6449C168.467 67.3809 165.878 57.656 159.046 57.0667ZM162.328 71.8006C157.487 76.5333 150.434 72.1365 151.206 65.0436C151.375 63.0558 152.214 61.1817 153.59 59.7216C154.265 58.9782 155.103 58.3968 156.04 58.0214C156.977 57.646 157.988 57.4866 158.996 57.5553C165.062 58.424 166.981 67.2573 162.328 71.8006Z" fill="#8330C3"/>
<path d="M187.488 57.0717C181.113 56.1402 176.646 64.4833 180.336 70.5193C180.867 71.4597 181.614 72.2614 182.516 72.8586C183.418 73.4558 184.449 73.8316 185.525 73.9551C186.601 74.0786 187.691 73.9464 188.706 73.5692C189.721 73.1921 190.631 72.5807 191.363 71.7853C196.353 66.7731 193.815 57.6211 187.488 57.0717ZM190.561 70.9879C186.014 75.468 179.418 71.2763 180.142 64.6059C180.525 60.5453 183.689 57.2073 187.434 57.5331C193.069 58.3464 194.99 66.6289 190.561 70.9879Z" fill="#8330C3"/>
<path d="M182.912 108.107C181.888 107.923 180.836 107.977 179.837 108.263C178.837 108.549 177.916 109.06 177.144 109.757C171.793 114.338 173.602 123.821 180.08 124.92C181.147 125.082 182.236 124.997 183.265 124.673C184.294 124.348 185.236 123.793 186.017 123.048C191.245 118.294 189.218 108.989 182.912 108.107ZM185.259 122.211C184.601 122.832 183.81 123.296 182.946 123.568C182.082 123.839 181.168 123.911 180.272 123.777C174.815 122.865 173.204 114.594 177.679 110.353C178.347 109.684 179.158 109.175 180.051 108.865C180.945 108.556 181.896 108.453 182.835 108.565C188.414 109.67 189.91 118.07 185.259 122.209V122.211Z" fill="#8330C3"/>
<path d="M219.052 56.069C212.293 55.154 207.476 63.5306 211.424 69.5273C215.568 75.8285 225.046 73.0604 225.949 65.1976C226.454 60.2602 223.12 56.401 219.052 56.069ZM224.846 65.0807C223.966 71.7485 216.095 74.329 212.464 68.9226C209.009 63.7673 212.852 56.0257 218.995 56.5266C222.946 57.0663 225.438 61.0237 224.846 65.0807Z" fill="#8330C3"/>
<path d="M214.502 109.126C207.819 107.886 202.574 116.025 206.168 122.204C206.695 123.161 207.449 123.992 208.371 124.634C209.293 125.276 210.36 125.711 211.489 125.906C218.397 126.983 223.482 118.615 219.725 112.57C219.192 111.66 218.444 110.876 217.539 110.28C216.634 109.683 215.595 109.288 214.502 109.126V109.126ZM211.693 124.765C210.746 124.597 209.853 124.23 209.08 123.691C208.307 123.151 207.675 122.454 207.231 121.652C204.074 116.337 208.336 108.79 214.416 109.586C215.398 109.787 216.318 110.194 217.108 110.778C217.897 111.362 218.535 112.106 218.973 112.955C221.979 118.371 217.551 125.705 211.693 124.765Z" fill="#8330C3"/>
<path d="M248.485 55.0671C244.644 54.4823 240.752 57.7714 240.081 62.9144C239.108 71.2366 247.145 76.1994 252.37 70.6487C257.285 65.4187 254.925 55.6611 248.485 55.0671ZM253.927 64.6063C253.101 71.6657 245.71 74.3914 242.302 68.6712C239.063 63.2275 242.654 55.0259 248.433 55.5558C252.137 56.1223 254.479 60.3063 253.922 64.6063H253.927Z" fill="#8330C3"/>
<path d="M243.909 110.118C240.103 109.365 236.078 112.282 235.159 117.09C233.795 124.827 241.49 130.034 247.009 125.026C248.555 123.584 249.567 121.663 249.882 119.573C250.215 117.506 249.838 115.387 248.811 113.562C248.311 112.652 247.61 111.868 246.76 111.271C245.91 110.674 244.935 110.28 243.909 110.118V110.118ZM248.855 119.399C248.55 121.24 247.635 122.925 246.257 124.185C241.492 128.424 235.139 123.903 236.206 117.269C236.798 113.222 240.127 110.054 243.837 110.575C244.758 110.777 245.622 111.184 246.363 111.768C247.104 112.351 247.703 113.095 248.115 113.943C248.966 115.627 249.226 117.548 248.855 119.399V119.399Z" fill="#8330C3"/>
<path d="M214.313 113.343C213.243 112.919 212.03 112.887 210.933 113.253C209.837 113.618 208.941 114.353 208.438 115.301C207.934 116.25 207.862 117.337 208.236 118.332C208.611 119.327 209.402 120.152 210.442 120.633C211.139 120.931 211.914 121.051 212.681 120.98C213.403 120.912 214.105 120.724 214.751 120.426C214.812 120.403 214.861 120.359 214.887 120.304C214.913 120.249 214.914 120.187 214.889 120.131C214.876 120.104 214.858 120.079 214.835 120.058C214.812 120.037 214.785 120.021 214.755 120.009C214.725 119.998 214.693 119.992 214.66 119.991C214.627 119.991 214.595 119.997 214.564 120.008C213.755 120.31 212.856 120.359 212.011 120.148C211.166 119.938 210.425 119.479 209.905 118.845C209.427 118.235 209.208 117.492 209.288 116.75C209.368 116.009 209.741 115.317 210.34 114.801C211.003 114.195 211.904 113.848 212.849 113.833C214.937 113.875 215.514 115.171 215.92 114.842C215.969 114.8 215.998 114.743 216 114.682C216.002 114.622 215.978 114.563 215.933 114.518C215.48 114.038 214.931 113.639 214.313 113.343V113.343Z" fill="#8330C3"/>
<path d="M218.166 60.0063C217.608 59.9722 217.051 60.0773 216.534 60.3139C216.017 60.5505 215.554 60.9128 215.179 61.3744C214.465 62.1845 214.046 63.2621 214.004 64.3978C213.961 65.5335 214.298 66.6463 214.95 67.5198C216.999 70.256 220.582 68.4706 220.336 67.8932C220.323 67.8635 220.306 67.8369 220.284 67.8148C220.262 67.7927 220.237 67.7756 220.209 67.7646C220.181 67.7535 220.152 67.7486 220.123 67.7502C220.093 67.7518 220.065 67.7599 220.038 67.774C219.143 68.1998 218.14 68.251 217.214 67.9183C216.625 67.6759 216.113 67.2444 215.743 66.6781C215.374 66.1118 215.162 65.436 215.135 64.7356C215.108 64.0353 215.267 63.3416 215.592 62.7419C215.917 62.1422 216.393 61.6631 216.961 61.365C217.563 61.0852 218.221 60.992 218.866 61.0952C219.511 61.1985 220.119 61.4944 220.627 61.9517C220.671 61.993 220.727 62.014 220.785 62.0105C220.842 62.0069 220.897 61.9792 220.936 61.9328C220.976 61.8864 220.999 61.8249 221 61.7605C221.001 61.6962 220.98 61.6339 220.941 61.5862C220.211 60.7111 219.229 60.1517 218.166 60.0063V60.0063Z" fill="#8330C3"/>
<path d="M158.892 62.4294C158.868 62.3176 158.803 62.2157 158.706 62.1387C158.61 62.0618 158.487 62.014 158.356 62.0026C158.226 61.9913 158.095 62.0168 157.982 62.0755C157.87 62.1342 157.783 62.2229 157.733 62.3282C156.68 64.3895 155.773 66.505 155.02 68.6627C155.007 68.6885 155 68.7163 155 68.7444C155 68.7725 155.006 68.8004 155.018 68.8264C155.03 68.8525 155.048 68.8762 155.071 68.8962C155.094 68.9162 155.121 68.9322 155.151 68.9431C155.181 68.9541 155.213 68.9598 155.245 68.9601C155.277 68.9603 155.31 68.955 155.34 68.9444C155.37 68.9339 155.397 68.9183 155.42 68.8986C155.443 68.8788 155.462 68.8554 155.474 68.8295C155.556 68.6981 156.272 67.5894 157.018 66.2889C157.548 66.4613 158.132 66.466 158.666 66.302C159.53 69.0055 159.556 69.0371 159.82 68.9911C160.083 68.9451 160.039 68.8308 159.807 67.152C159.633 65.8856 159.048 63.1571 158.892 62.4294ZM157.033 65.389C157.218 65.0396 157.924 63.5328 158.115 63.1558C158.152 63.2964 158.663 64.9017 158.798 65.389C158.746 65.3812 157.185 65.389 157.033 65.389Z" fill="#8330C3"/>
<path d="M149.72 116.551C148.994 118.323 148.862 118.544 149.125 118.671C149.429 118.82 149.644 118.389 151.172 115.771C151.691 115.998 152.274 116.037 152.82 115.881C153.108 117.196 153.479 118.645 153.516 118.795C153.525 118.857 153.559 118.914 153.611 118.952C153.662 118.99 153.727 119.007 153.791 118.998C153.855 118.989 153.912 118.955 153.951 118.905C153.99 118.854 154.007 118.79 153.998 118.727C153.998 118.727 153.969 117.957 153.906 116.909C153.443 109.033 152.765 109.148 149.72 116.551ZM151.301 114.672C151.5 114.305 152.335 112.775 152.558 112.345C152.61 112.654 152.517 114.353 152.605 114.829C152.174 114.75 151.739 114.697 151.301 114.672V114.672Z" fill="#8330C3"/>
<path d="M184.525 61.1204C183.973 61.142 184.007 69.3768 184.005 69.3811C183.992 69.4408 184.004 69.503 184.039 69.5542C184.074 69.6055 184.128 69.6415 184.191 69.6546C190.195 71.2383 191.377 66.9395 188.455 65.5704C191.345 64.4719 190.261 60.2365 184.525 61.1204ZM184.525 69.2357C184.802 68.1701 184.959 67.0794 184.994 65.9821C190.727 66.1592 189.769 69.8965 184.525 69.2357ZM185.038 64.8218C185.085 63.7784 185.026 62.7332 184.863 61.7006C190.082 61.5566 190.626 65.2551 185.038 64.8218Z" fill="#8330C3"/>
<path d="M183.506 112.483C182.343 112.074 181.106 111.922 179.879 112.038C179.567 112.337 179.63 112.74 179.402 114.175C179.353 114.481 179.314 114.812 179.274 115.154C179.241 115.428 179.209 115.709 179.181 115.992C179.17 116.026 179.162 116.062 179.158 116.098C179.153 116.141 179.153 116.185 179.158 116.228C179.123 116.596 179.087 116.96 179.061 117.312C178.991 118.208 178.981 119.107 179.031 120.003C179.051 120.896 184.329 122.218 184.703 118.654C184.721 118.282 184.64 117.911 184.466 117.582C184.292 117.253 184.033 116.976 183.715 116.783C183.612 116.712 183.503 116.64 183.389 116.577C183.557 116.521 183.721 116.453 183.879 116.371C184.248 116.176 184.55 115.874 184.748 115.506C184.946 115.137 185.03 114.718 184.99 114.301C184.95 113.884 184.788 113.489 184.523 113.165C184.259 112.841 183.905 112.604 183.506 112.483V112.483ZM183.393 117.975C184.235 118.9 183.38 120.526 179.564 119.759C179.784 118.778 179.914 117.78 179.952 116.776C180.05 116.787 180.171 116.8 180.307 116.812C181.121 116.917 181.916 117.139 182.668 117.471C182.939 117.592 183.185 117.763 183.393 117.975V117.975ZM180.062 115.624C180.164 114.599 180.194 113.567 180.151 112.537C184.896 112.591 185.756 116.321 180.062 115.624V115.624Z" fill="#8330C3"/>
<path d="M245.361 60.0001C245.299 59.9983 245.238 60.0212 245.191 60.0639C245.145 60.1066 245.116 60.1658 245.112 60.2292C245.112 60.2292 244.69 62.829 244.389 65.0937C244.16 66.8191 244.003 68.345 244.003 68.345C243.995 68.4297 244.005 68.5151 244.032 68.5955C244.059 68.6759 244.103 68.7496 244.161 68.8115C244.218 68.8735 244.288 68.9223 244.366 68.9547C244.444 68.9872 244.527 69.0025 244.611 68.9997C244.765 68.9326 251.615 68.8157 251.99 64.3845C252.288 59.785 245.515 60.0656 245.361 60.0001ZM245.232 67.7418C245.425 65.2745 245.514 63.0129 245.594 60.5285C252.795 61.5104 252.513 66.8768 245.232 67.7418Z" fill="#8330C3"/>
<path d="M242.185 114.378C241.397 114.169 240.59 114.042 239.778 114.001V114.001C239.717 113.995 239.657 114.014 239.609 114.054C239.561 114.093 239.53 114.151 239.522 114.214C238.1 121.342 237.798 122.36 238.114 122.749C238.652 123.433 242.407 122.577 243.689 121.878C244.283 121.597 244.802 121.168 245.2 120.629C245.597 120.089 245.861 119.456 245.969 118.785C246.26 116.345 244.47 114.99 242.185 114.378ZM239.216 121.742C239.537 119.293 239.745 117.164 239.976 114.543C247.018 115.978 246.269 121.309 239.223 121.742H239.216Z" fill="#8330C3"/>
<path d="M80.7618 145.665C80.7654 145.74 80.7903 145.812 80.8337 145.872C80.877 145.933 80.9368 145.98 81.0059 146.007C81.0059 146.007 84.2636 147.322 87.9624 148.805C92.8138 150.743 98.4075 152.97 98.4075 152.97C98.4588 152.99 98.5131 153 98.5678 153C98.655 153 98.7401 152.973 98.8118 152.923C98.8702 152.882 98.9178 152.827 98.9505 152.763C98.9833 152.699 99.0003 152.628 99 152.556C99 152.556 98.9397 145.797 98.8677 139.943C98.8148 135.476 98.753 131.536 98.753 131.536C98.7521 131.447 98.7218 131.361 98.6669 131.291C98.6121 131.222 98.5357 131.173 98.4502 131.152C98.4502 131.152 93.8928 130.101 89.3355 129.063C84.7782 128.025 80.212 127 80.212 127H80.1738C80.15 127 80.1266 127.005 80.1048 127.015C80.0831 127.024 80.0635 127.038 80.0473 127.056C80.031 127.073 80.0185 127.094 80.0104 127.117C80.0023 127.139 79.9989 127.163 80.0003 127.187C80.0003 127.187 80.1738 131.809 80.3649 136.431C80.556 141.052 80.7618 145.665 80.7618 145.665ZM80.5825 127.456C81.835 127.777 85.5162 128.717 89.1988 129.648C93.0402 130.619 96.8845 131.579 97.9695 131.852C97.9695 132.542 97.9797 134.334 97.993 136.589C92.1372 136.716 86.3078 135.76 80.7927 133.768V133.719C80.6001 130.748 80.4281 128.184 80.3752 127.407L80.5825 127.456Z" fill="#8330C3"/>
<path d="M109.713 78.9923C109.764 78.9752 109.812 78.9459 109.853 78.906C109.894 78.8662 109.928 78.8166 109.953 78.7603C109.978 78.7041 109.994 78.6423 109.998 78.5786C110.003 78.515 109.997 78.4509 109.981 78.3901C109.906 78.0755 109.844 77.7563 109.794 77.4371C109.775 77.3059 109.715 77.1883 109.627 77.1077C109.54 77.0272 109.43 76.9896 109.321 77.0025C109.268 77.0117 109.218 77.0344 109.173 77.0691C109.128 77.1037 109.09 77.1496 109.061 77.2036C109.032 77.2576 109.012 77.3185 109.004 77.3822C108.996 77.4459 109 77.5109 109.014 77.5729C109.07 77.9215 109.139 78.2656 109.218 78.6074C109.246 78.735 109.312 78.8453 109.404 78.9165C109.496 78.9877 109.606 79.0148 109.713 78.9923V78.9923Z" fill="#8330C3"/>
<path d="M110.095 83.9938C110.127 84.0026 110.162 84.002 110.193 83.9922C110.223 83.9825 110.248 83.9642 110.262 83.9412C110.344 83.9037 110.42 83.8596 110.49 83.8098C110.515 83.7923 110.539 83.7734 110.561 83.7533C110.589 83.7257 110.618 83.6968 110.646 83.664C110.674 83.6311 110.736 83.5602 110.78 83.505C110.808 83.4708 110.833 83.4352 110.855 83.3986C110.881 83.3526 110.878 83.3158 110.899 83.2672C110.91 83.2369 110.923 83.207 110.938 83.1778C110.967 83.1645 110.988 83.1433 110.996 83.1188C111.004 83.0943 110.999 83.0683 110.982 83.0464C110.965 83.0247 110.936 83.009 110.903 83.0029C110.87 82.9967 110.835 83.0006 110.805 83.0136C110.707 83.0205 110.611 83.0391 110.52 83.0688C110.482 83.0784 110.445 83.0921 110.412 83.1095C110.344 83.146 110.284 83.1904 110.235 83.2409C110.169 83.3033 110.114 83.3717 110.072 83.4446C110.042 83.4914 110.019 83.5408 110.005 83.5917C109.998 83.6354 109.998 83.6795 110.005 83.7231C110.005 83.7695 110.012 83.8158 110.026 83.8611C110.018 83.8731 110.014 83.8862 110.013 83.8995C110.012 83.9128 110.015 83.9261 110.022 83.9386C110.028 83.951 110.038 83.9624 110.051 83.9718C110.063 83.9813 110.078 83.9888 110.095 83.9938V83.9938Z" fill="#8330C3"/>
<path d="M288.819 0.162928C288.759 0.104967 288.686 0.0606587 288.607 0.0329682C288.527 0.00527759 288.443 -0.00515433 288.36 0.0023724C208.632 7.08309 139.531 17.2586 139.052 19.2737C136.34 30.5465 130.031 106.986 129.089 118.567L125.477 118.243C120 107.755 114.775 96.8434 103.354 91.7925L104.502 88.9731C109.146 89.4578 112.755 86.8962 112.587 81.4314C114.764 79.4443 115.422 81.1147 110.515 75.0562C112.515 72.994 112.494 66.0577 107.203 66.9871C106.038 66.2029 104.675 65.764 103.27 65.7213C101.866 65.6785 100.479 66.0336 99.2676 66.7456C99.2676 66.7456 96.1419 59.7105 90.6744 63.3827C85.207 67.0549 85.4001 84.3568 82.967 86.553C82.967 86.553 90.446 83.635 92.4797 79.4369C92.959 81.0808 93.978 82.5154 95.3726 83.5098C94.1243 85.3315 93.1279 87.3134 92.4104 89.4018C81.6421 89.0954 76.7715 98.913 76.972 108.901C76.972 108.901 77.3654 128.922 77.7575 148.166C71.7919 149.033 7.76406 159.472 9.01818 162.267C9.12871 162.52 9.37482 162.365 9.63566 162.267C9.54939 164.339 9.61983 166.415 9.8464 168.477C27.942 177.249 136.563 230.381 153.747 226.83C170.932 223.278 277.911 185.088 277.911 185.088C278.696 180.967 279.005 176.77 278.831 172.579C281.112 169.065 288.992 0.769807 288.999 0.619561C289.004 0.535005 288.99 0.450445 288.959 0.371645C288.928 0.292846 288.88 0.221656 288.819 0.162928V0.162928ZM125.16 119.098C135.108 120.009 139.102 120.375 140.863 120.473C141.503 120.546 142.151 120.507 142.779 120.358C143.16 120.251 143.548 120.174 143.941 120.127C144.701 120.053 145.465 120.224 146.121 120.615C146.777 121.007 147.29 121.597 147.586 122.301C146.494 122.063 145.378 121.951 144.261 121.968C138.857 122.92 128.411 129.322 122.256 128.117C119.124 127.502 115.057 123.639 112.908 121.279L112.812 120.811C115.276 118.159 118.881 115.166 122.377 114.182C124.979 119.128 124.795 119.058 125.16 119.098ZM81.0438 159.19L80.9716 149.266L94.4103 154.476C94.3351 156.856 94.2231 160.81 94.1818 163.215C89.9033 161.565 85.5129 160.219 81.0438 159.19V159.19ZM94.1759 163.647C94.1583 164.886 94.1465 166.401 94.1391 167.624C92.4692 166.986 90.7678 166.434 89.0416 165.97C85.5769 166.951 84.6662 167.148 81.1101 168.356L81.0467 159.615C85.3266 161.258 89.7143 162.605 94.1789 163.647H94.1759ZM81.1293 183.404C81.1864 183.331 81.2175 183.24 81.2177 183.147L81.1116 168.67C82.9036 168.291 85.0036 167.811 89.127 166.639C90.726 167.113 91.7193 167.385 94.1376 167.964C94.1155 171.978 94.089 171.915 94.2069 172.089C94.4881 172.405 94.8777 172.603 95.2986 172.646C95.7195 172.688 96.1409 172.571 96.4793 172.317C96.5475 172.279 96.6044 172.224 96.6442 172.157C96.6841 172.09 96.7055 172.013 96.7063 171.936C96.7063 171.936 96.7063 170.626 96.7063 168.727C97.1824 168.921 97.6759 169.069 98.18 169.169L98.8535 191.706C98.8551 191.766 98.8691 191.824 98.8944 191.878C98.9198 191.931 98.956 191.979 99.0008 192.018C99.3847 192.373 99.8859 192.572 100.408 192.58H100.433C100.971 192.58 102.015 192.183 102.006 191.681C102.006 191.534 101.934 188.097 101.938 188.315C101.938 188.15 101.263 155.348 101.267 155.516C102.256 155.283 105.204 154.589 108.502 153.807C108.665 155.302 109.48 162.723 110.176 167.938C106.823 166.921 105.261 166.465 101.481 165.491L101.493 166.111L101.481 165.522L101.493 166.069V165.879C104.86 167.097 107.206 167.851 110.301 168.802C110.534 170.489 110.743 171.865 110.91 172.607C110.91 172.607 111.075 172.676 111.352 172.755C111.352 172.806 111.337 172.862 111.328 172.921C108.137 171.728 104.878 170.721 101.57 169.906L101.553 169.205L101.574 170.168V169.809V170.175C104.757 171.345 108.005 172.333 111.3 173.135C110.527 178.895 111.89 178.228 114.812 177.605C116.561 177.284 118.254 176.708 119.836 175.896C120 176.039 120.208 176.123 120.425 176.132C120.565 183.421 120.493 183.014 120.72 183.203C120.868 183.223 122.549 184.58 123.962 183.203C124.15 183.026 124.11 183.376 123.99 176.994C124.363 177.155 124.727 177.335 125.081 177.534C124.767 178.851 124.832 180.23 125.27 181.512C125.986 182.41 132.491 180.295 133.533 179.826C134.715 180.314 135.944 180.676 137.202 180.906C137.211 189.342 137.159 188.804 137.349 188.975C137.549 189.219 137.808 189.408 138.101 189.523C138.394 189.639 138.712 189.678 139.024 189.635C139.337 189.593 139.633 189.471 139.885 189.282C140.137 189.093 140.336 188.842 140.463 188.554L140.552 182.018L151.724 185.495C149.011 186.452 141.408 189.136 133.82 191.849C125.169 194.942 116.533 198.07 115.104 198.585C100.874 193.054 71.674 181.753 56.1633 175.901L78.1863 169.627C78.3558 177.623 78.481 183.114 78.481 183.114C78.4825 183.172 78.4965 183.229 78.5219 183.282C78.5473 183.334 78.5836 183.38 78.6284 183.418C78.9548 183.716 79.3677 183.903 79.8074 183.951H79.9312C80.1583 183.95 80.3827 183.901 80.5894 183.807C80.796 183.713 80.9801 183.576 81.1293 183.404V183.404ZM94.7861 154.62L96.1419 155.146C95.94 161.119 95.8648 164.799 95.8353 171.653C95.706 171.72 95.5622 171.754 95.4166 171.753C95.271 171.751 95.1279 171.714 94.9997 171.645C95.0307 164.921 94.96 160.691 94.7861 154.62V154.62ZM96.6915 163.9C96.6577 160.954 96.5987 158.268 96.525 155.298L97.788 155.787L98.0385 164.199C97.6192 163.995 97.1579 163.892 96.6915 163.897V163.9ZM98.0621 164.974L98.1785 168.86C97.7015 168.675 97.2081 168.535 96.7048 168.442C96.7048 167.558 96.7048 165.963 96.693 164.6C97.1113 164.836 97.5819 164.963 98.0621 164.971V164.974ZM134.076 131.108L134.116 132.796C127.906 131.795 123.08 131.055 114.532 129.918C114.408 129.139 114.304 128.495 114.162 127.72C122.179 129.186 126.115 129.85 134.076 131.105V131.108ZM114.093 127.346C113.862 126.105 113.537 124.4 113.048 121.967C115.264 124.579 117.976 126.726 121.028 128.282C119.289 128.033 116.486 127.653 114.093 127.346ZM125.819 181.065C125.774 181.12 125.729 180.933 125.695 180.827C125.498 179.721 125.448 178.594 125.548 177.476C126.95 177.811 128.428 177.595 129.674 176.872C129.596 177.361 129.428 177.629 129.592 177.795C130.647 177.66 131.71 177.603 132.774 177.623C133.76 177.721 134.1 178.57 133.422 179.096C132.995 179.43 132.576 179.311 131.391 179.692C129.55 180.265 127.673 180.715 125.772 181.04C125.794 181.037 125.831 181.045 125.819 181.058V181.065ZM130.061 177.313L130.167 176.368C130.314 175.994 130.478 175.546 130.656 175.042C133.202 175.82 134.34 176.166 137.208 176.845C137.208 176.992 137.208 180.85 137.208 180.606C136.183 180.182 135.124 179.844 134.042 179.597C134.376 179.414 136.169 176.25 130.061 177.306V177.313ZM137.211 176.471C134.656 175.494 133.245 175.051 130.898 174.326C132.987 168.115 136.571 155.03 137.209 152.682C137.211 159.228 137.202 170.081 137.211 176.471ZM115.105 133.802C115.061 133.508 114.886 132.231 114.585 130.282C135.932 134.259 134.878 133.842 134.986 133.417L137.217 133.062C137.217 133.209 137.217 137.186 137.217 136.927C135.223 132.195 120.953 133.564 115.105 133.802ZM124.979 173.16L125.333 177.047C124.917 176.807 124.458 176.651 123.982 176.586C123.918 173.431 123.939 174.476 123.903 172.763C124.183 172.862 124.549 173.001 124.99 173.157L124.979 173.16ZM123.896 172.383C123.787 167.471 123.641 161.848 123.51 156.995L124.932 172.638C124.509 172.529 124.155 172.445 123.906 172.383H123.896ZM122.717 148.276C123.274 186.225 123.223 182.434 123.227 182.702C122.952 182.872 122.632 182.955 122.308 182.94C121.985 182.926 121.674 182.813 121.416 182.618C120.797 148.957 120.907 150.064 120.272 150.212C119.339 150.453 109.67 152.928 101.261 155.139C101.261 154.992 101.205 152.532 101.21 152.688L122.717 148.276ZM115.993 174.096C116.14 174.096 120.321 173.802 120.048 174.556C119.832 175.169 117.933 175.836 117.322 176.039C116.634 176.268 112.354 177.455 112.127 177.146C111.71 175.759 111.578 174.302 111.738 172.864C113.112 173.234 114.57 173.15 115.892 172.623C115.811 173.357 115.521 174.154 116.003 174.096H115.993ZM116.228 173.543L116.292 172.423C116.306 172.414 116.322 172.406 116.337 172.398C116.337 172.398 116.494 171.756 116.746 170.716C117.561 170.938 119.347 171.411 120.334 171.659C120.346 172.336 120.359 173.002 120.371 173.646C119.025 173.257 117.602 173.222 116.239 173.543H116.228ZM116.9 170.074C117.742 166.602 119.305 160.104 120.075 156.686C120.147 161.305 120.207 164.843 120.327 171.28C119.297 170.904 117.596 170.308 116.911 170.074H116.9ZM140.117 149.522L139.638 188.41C139.546 188.534 139.427 188.636 139.291 188.708C139.154 188.781 139.003 188.822 138.848 188.829C138.694 188.836 138.539 188.808 138.397 188.748C138.254 188.687 138.127 188.596 138.024 188.48C137.937 173.917 137.693 147.272 137.562 133.004C149.78 131.058 155.127 130.177 167.616 128.014C167.383 145.108 167.202 160.197 167.009 177.302C166.787 177.454 166.527 177.543 166.258 177.559C165.989 177.575 165.721 177.518 165.482 177.393C165.062 142.431 165.434 143.183 164.609 143.378C139.539 149.465 140.136 148.864 140.127 149.522H140.117ZM164.334 148.5L164.382 152.225C159.726 150.975 153.85 149.618 147.287 148.376L154.959 146.556C157.383 147.196 160.97 147.979 164.345 148.5H164.334ZM155.669 146.388L164.283 144.342L164.333 148.256C161.471 147.49 157.922 146.749 155.679 146.388H155.669ZM140.987 149.873L146.517 148.56C151.736 149.955 158.476 151.473 164.386 152.538L164.701 177.66C164.702 177.733 164.723 177.804 164.763 177.866C164.802 177.928 164.858 177.977 164.924 178.009C165.349 178.295 165.862 178.42 166.372 178.363C166.881 178.306 167.353 178.07 167.705 177.696C167.815 177.549 167.789 178.838 167.889 153.411C189.082 158.282 212.275 163.603 233.13 168.288C244.962 170.95 254.889 173.165 259.077 174.099C240.923 179.876 214.508 188.308 196.15 194.201C193.464 193.388 165.645 184.944 140.615 177.453L140.987 149.873ZM135 133.05L134.947 130.859C146.803 129.009 154.612 127.778 170.506 125.066L170.576 126.617C156.02 129.126 146.958 130.781 135 133.05ZM134.88 130.503C134.707 130.225 124.73 128.797 124.581 128.777C131.471 128.441 138.156 124.098 144.422 122.737C151.419 123.561 160.883 124.308 168.001 124.602C166.025 124.947 148.326 128.003 134.875 130.503H134.88ZM148.778 122.525C148.531 122.319 148.3 122.095 148.087 121.855C147.923 121.507 147.515 121.07 147.185 120.529C143.894 114.923 148.377 107.299 154.102 108.272C160.383 109.304 161.393 119.346 155.589 122.952C152.896 122.759 151.202 122.633 148.774 122.525H148.778ZM95.7616 83.7189C96.4396 84.0228 97.1752 84.1767 97.9182 84.1701C98.6611 84.1635 99.3939 83.9965 100.066 83.6806C101.217 85.5867 103.482 84.4289 103.257 84.0415C103.246 84.0217 103.23 84.0043 103.212 83.9903C103.194 83.9764 103.174 83.9661 103.152 83.9602C103.129 83.9544 103.106 83.9529 103.084 83.956C103.061 83.9591 103.039 83.9666 103.02 83.9782C100.862 84.9298 99.9249 81.8821 100.872 81.1486C101.928 80.281 102.816 81.3931 102.964 81.4432C102.977 81.4625 102.994 81.479 103.014 81.4918C103.033 81.5046 103.056 81.5133 103.079 81.5175C103.102 81.5218 103.126 81.5214 103.149 81.5165C103.172 81.5116 103.193 81.5022 103.213 81.4888C103.232 81.4755 103.249 81.4585 103.261 81.4387C103.274 81.419 103.283 81.3969 103.287 81.3738C103.291 81.3507 103.291 81.327 103.286 81.304C103.281 81.281 103.272 81.2592 103.258 81.2399L103.251 81.2266C104.666 80.0923 105.963 78.8186 107.122 77.4248C107.719 76.5204 109.143 76.2464 110.229 75.3287C111.261 76.8665 112.23 78.2747 113.312 79.8332C112.093 80.8142 111.714 80.8643 111.732 81.2502C112.099 89.1764 104.502 88.2278 104.349 88.3206C103.871 88.2573 103.997 88.8818 103.023 91.6481C99.8222 90.3055 96.4051 89.5529 92.9366 89.4268C94.1272 87.6578 95.0772 85.7383 95.7616 83.7189V83.7189ZM92.4665 90.1074C107.576 90.7511 115.378 100.91 122.173 113.784C118.377 114.251 114.814 117.202 112.696 120.233C109.367 104.074 110.902 118.364 114.447 132.574C110.21 134.744 105.601 136.094 100.862 136.551C100.308 111.678 100.386 113.101 100.125 113.051L77.3257 108.753C77.4509 98.667 82.2198 89.6596 92.4665 90.1074V90.1074ZM77.3286 109.109L99.8084 113.528C100.223 140.107 100.643 164.727 101.158 191.482C100.944 191.63 100.692 191.713 100.432 191.722H100.423C100.165 191.717 99.9156 191.631 99.7097 191.476C98.4836 153.43 98.8933 155.266 98.373 155.068C79.4286 147.739 80.559 148.076 80.2848 148.264C79.9238 148.512 80.1006 150.415 80.3895 182.97C80.2276 183.083 80.0316 183.138 79.8343 183.124C79.637 183.11 79.4506 183.028 79.3063 182.893C79.0322 171.949 77.3905 111.332 77.3286 109.113V109.109ZM77.9638 158.247C73.1477 156.565 69.8864 155.52 65.85 154.27C70.2342 153.259 72.1397 152.797 77.8208 151.283C77.868 153.656 77.9166 155.987 77.9682 158.251L77.9638 158.247ZM152.915 217.886C121.171 211.169 11.2567 162.963 9.65334 162.256C15.7206 159.954 47.887 154.41 77.7678 148.677L77.812 150.895C62.4958 153.793 63.7352 153.966 63.7278 154.196C63.7235 154.292 63.7514 154.387 63.8073 154.466C63.8631 154.544 63.9435 154.602 64.0358 154.629C67.2072 155.548 69.0464 156.264 77.9711 158.652C78.008 160.473 78.0979 164.839 78.1907 169.135C58.3665 174.503 52.5233 175.487 54.5305 176.275C93.3831 191.535 103.752 195.403 114.905 199.734C115.175 199.84 114.058 200.254 134.185 192.821C143.617 189.342 153.027 185.814 153.027 185.814C153.099 185.788 153.162 185.74 153.206 185.676C153.249 185.612 153.272 185.536 153.27 185.459C153.267 185.382 153.241 185.307 153.194 185.246C153.147 185.184 153.082 185.139 153.008 185.117L140.568 181.507L140.615 177.951C140.763 177.997 195.994 195.384 196.321 195.275C256.996 175.995 264.655 174.113 261.473 173.419C261.473 173.419 249.121 170.657 233.38 167.178C227.456 165.871 221.051 164.462 214.645 163.053C192.187 158.151 169.721 153.304 167.895 152.912C167.907 149.957 167.907 149.877 167.908 149.362L278.244 172.781C244.054 187.577 152.915 217.89 152.915 217.89V217.886ZM277.949 171.684L167.917 148.882C167.954 138.778 167.98 129.509 167.985 127.947C172.553 127.158 171.309 127.971 171.352 124.528C171.349 124.467 171.332 124.407 171.304 124.352C171.276 124.298 171.237 124.249 171.189 124.211C171.141 124.172 171.086 124.144 171.026 124.128C170.967 124.112 170.905 124.108 170.844 124.117L170.033 124.256C164.523 123.615 161.906 123.408 156.475 123.013C158.342 121.682 159.664 119.721 160.197 117.493C160.73 115.264 160.438 112.918 159.375 110.887C154.63 102.106 141.827 109.791 145.951 119.623C144.624 119.192 143.193 119.199 141.871 119.644C140.319 119.541 137.075 119.26 136.008 119.17C137.011 109.139 144.4 36.1646 147.209 26.5665C177.527 23.1064 256.735 14.0062 276.735 12C275.572 33.1567 269.788 136.223 267.084 157.102C44.0348 121.722 267.673 158.201 267.821 158.091C269.54 156.814 278.344 11.4697 277.77 10.9173C277.708 10.8586 277.635 10.8138 277.554 10.7861C277.474 10.7584 277.388 10.7484 277.304 10.7568C258.722 12.6127 146.569 25.3851 146.376 25.9699C143.555 34.6459 136.393 109.968 135.534 119.134C133.509 118.961 131.369 118.77 129.567 118.61C130.612 106.54 137.198 31.6557 139.912 19.7877C174.249 12.1929 252.705 4.333 287.794 1.22791C285.888 46.0234 281.866 126.548 277.949 171.684Z" fill="#8330C3"/>
</svg>
