<svg width="241" height="278" viewBox="0 0 241 278" fill="none" xmlns="http://www.w3.org/2000/svg">
<ellipse cx="26.5" cy="26.1504" rx="25.5" ry="23.5" fill="#D9D9D9"/>
<ellipse cx="152.5" cy="26.1504" rx="25.5" ry="23.5" fill="#D9D9D9"/>
<ellipse cx="213.5" cy="26.1504" rx="25.5" ry="23.5" fill="#D9D9D9"/>
<circle cx="92.7508" cy="25.7918" r="25.7918" fill="#60FFA9"/>
<path d="M115.236 139.933L87.8725 156.297L78.302 158.392L51.8805 163.425C51.1663 163.561 50.6526 164.189 50.6612 164.916C50.6699 165.643 51.1986 166.259 51.9157 166.378L133.246 179.865C131.935 181.551 130.688 183.749 129.527 186.144C127.713 189.888 125.986 194.378 124.47 198.82C121.445 207.684 119.197 216.544 118.755 219.195C118.323 221.786 119.413 224.449 120.99 226.606C122.587 228.79 124.852 230.693 127.21 231.794C127.751 232.046 128.39 231.954 128.837 231.559L134.209 226.819C134.723 228.417 135.242 230.38 134.808 234.943C134.314 240.128 137.638 244.092 141.042 245.416C142.741 246.076 144.756 246.181 146.335 245.043C147.954 243.876 148.602 241.78 148.365 239.178C148.07 235.932 149.292 232.974 151.058 230.531C152.246 228.886 153.643 227.529 154.878 226.543L162.339 253.248C162.447 253.634 162.706 253.961 163.057 254.156C163.408 254.35 163.822 254.396 164.207 254.283L178.583 250.055C179.221 249.867 179.66 249.281 179.66 248.616V231.445L192.304 226.319V239.314C192.304 240.142 192.976 240.814 193.804 240.814H198.878C199.709 240.814 200.504 240.613 201.218 240.16C201.921 239.713 202.458 239.077 202.874 238.337C203.681 236.903 204.142 234.878 204.437 232.387C205.029 227.394 205.029 219.718 205.029 209.021V208.871C205.029 208.85 205.029 208.828 205.028 208.807C205.004 208.245 204.973 207.649 204.941 207.024C204.78 203.886 204.581 200.023 205.005 196.028C205.512 191.252 206.894 186.493 210.15 182.803C212.42 180.231 214.085 180.057 215.018 180.144C215.464 180.185 215.801 180.286 216.17 180.396C216.265 180.425 216.363 180.454 216.466 180.483C216.579 180.515 216.733 180.556 216.895 180.583C217.041 180.606 217.319 180.641 217.637 180.574C218.014 180.494 218.434 180.271 218.713 179.829C218.952 179.449 218.982 179.066 218.982 178.851C218.982 178.335 218.765 177.939 218.568 177.688C218.374 177.441 218.146 177.261 217.958 177.134C217.582 176.881 217.124 176.678 216.688 176.515C215.796 176.181 214.658 175.885 213.583 175.643C212.494 175.398 211.412 175.196 210.606 175.055C210.579 175.05 210.552 175.045 210.526 175.041V170.528C210.667 170.368 210.829 170.185 211.011 169.981C212.474 168.334 215.164 165.308 217.677 161.495C220.81 156.743 223.831 150.548 224.055 143.807C224.28 137.074 221.707 130.551 218.831 125.614C217.386 123.132 215.841 121.011 214.481 119.417C213.802 118.62 213.158 117.943 212.587 117.413C212.087 116.949 211.573 116.534 211.097 116.27C211.096 116.251 211.096 116.229 211.097 116.202C211.102 115.864 211.237 115.314 211.549 114.575C212.16 113.131 213.224 111.486 214.031 110.409C214.21 110.171 214.314 109.885 214.329 109.588L215.175 93.5209C215.203 92.9885 214.946 92.4812 214.501 92.1885L199.702 82.4637C199.457 82.3029 199.171 82.2172 198.878 82.2172H188.731C188.176 82.2172 187.666 82.5235 187.406 83.0135C186.158 85.3634 184.518 89.2328 183.619 93.2867C182.738 97.264 182.484 101.806 184.478 105.196C184.854 105.836 185.022 106.266 185.089 106.528C185.019 106.535 184.931 106.54 184.822 106.54C184.398 106.539 183.833 106.462 183.151 106.304C180.368 105.658 176.729 103.933 175.61 103.187C175.068 102.826 174.397 102.612 173.77 102.463C173.117 102.309 172.37 102.196 171.59 102.101C170.806 102.005 169.95 101.924 169.077 101.842L169.004 101.835C168.147 101.754 167.269 101.672 166.386 101.571C164.561 101.362 162.796 101.084 161.307 100.624C159.793 100.156 158.76 99.5583 158.191 98.8472C156.381 96.5844 152.122 92.8883 147.872 89.4252C143.571 85.9206 139.11 82.5213 136.761 80.813C134.289 79.0154 132.214 78.5304 130.627 79.2249C129.853 79.5635 129.327 80.1405 129.048 80.7395C128.912 81.0324 128.817 81.3696 128.807 81.7228C128.799 81.9943 128.838 82.5141 129.211 82.9651C129.211 82.9656 129.211 82.9661 129.212 82.9667C129.243 83.0132 129.291 83.0868 129.357 83.1908C129.489 83.397 129.676 83.6968 129.916 84.0837C130.395 84.8563 131.071 85.9589 131.9 87.3171C133.557 90.0326 135.818 93.7594 138.316 97.8867C143.312 106.141 149.252 115.991 153.198 122.545C153.327 122.76 153.509 122.94 153.727 123.067C155.468 124.082 158.267 125.537 161.043 126.615C162.429 127.154 163.851 127.615 165.156 127.872C165.665 127.973 166.189 128.049 166.709 128.08C166.276 131.604 165.695 137.186 165.668 140.95C164.859 143.172 163.418 147.919 163.168 151.912C162.06 152.285 160.743 152.882 159.39 153.573C157.475 154.551 155.342 155.793 153.349 157.086C151.361 158.375 149.474 159.74 148.066 160.966C147.366 161.576 146.746 162.185 146.287 162.762C146.127 162.964 145.974 163.177 145.841 163.398H128.772L117.347 140.55C117.161 140.176 116.827 139.898 116.426 139.781C116.025 139.664 115.594 139.719 115.236 139.933Z" fill="#60FFA9" stroke="#60FFA9" stroke-width="3" stroke-linejoin="round"/>
<path d="M220.018 175.469C220.018 174.2 211.562 172.932 211.562 172.932V166.589C213.675 164.053 224.669 153.059 225.092 140.375C225.515 127.69 215.367 115.429 212.831 114.16C210.801 113.145 213.676 108.382 215.367 106.127L216.213 90.0597L201.414 80.3349H191.267C188.871 84.845 184.925 95.3026 188.307 101.053C192.535 108.241 179.851 102.744 177.314 101.053C174.777 99.3617 162.938 100.63 159.556 96.4019C156.173 92.1738 143.066 82.0263 138.415 78.6438C133.764 75.2613 132.495 78.221 132.918 78.6438C133.256 78.982 149.126 105.281 157.019 118.389C160.401 120.362 167.927 124.054 170.972 123.039C170.549 126.14 169.703 133.441 169.703 137.838C168.858 140.093 167.166 145.618 167.166 149.677C162.938 150.523 149.407 158.979 149.407 161.516H130.381L118.542 137.838L72.8783 132.341L78.7978 154.328L31.0195 161.516L130.381 183.925C123.193 189.422 119.388 215.636 118.542 220.71C117.865 224.769 126.153 229.73 130.381 231.703L137.569 220.71C137.851 222.824 138.245 228.828 137.569 235.931C136.723 244.811 150.253 245.233 149.407 235.931C148.731 228.49 155.045 222.683 158.287 220.71L166.32 249.462L180.696 245.233V227.052L196.34 220.71V235.931H201.414C202.965 234.804 206.065 227.137 206.065 205.489C205.783 198.865 204.474 186.462 211.562 178.428C216.635 172.678 220.018 176.737 220.018 175.469Z" fill="#D9D9D9"/>
<path d="M193.5 213.15L179 217.65V210.15C179 203.65 186 202.65 190.5 204.15C194.1 205.35 194 210.65 193.5 213.15Z" fill="#60FFA9"/>
<path d="M83.2588 166.587L74.4639 133.477L118.956 137.098L127.751 162.449L149.997 166.587L151.032 169.174L129.82 174.865L83.2588 166.587Z" fill="#60FFA9"/>
<path d="M48.1244 12.5245L48.1241 12.524C45.3833 8.38134 41.531 5.09452 37.0086 3.04009C32.4861 0.985659 27.4764 0.246716 22.5534 0.907917L22.5534 0.907779L22.5452 0.909167C17.2379 1.80335 12.3353 4.31217 8.50562 8.09377C4.67592 11.8754 2.10532 16.7458 1.14412 22.0414L1.14402 22.0419C0.192468 27.3523 0.975067 32.8278 3.37609 37.659C5.77693 42.4898 9.66849 46.4198 14.4754 48.868C25.023 54.3732 39.9423 51.1266 46.9227 41.1871C52.8369 32.7654 53.9108 21.3174 48.1244 12.5245ZM27.7982 2.06882C47.1012 3.10887 57.5224 24.9924 46.0224 40.318C42.7463 44.6517 38.1538 47.8067 32.9333 49.3101C27.7134 50.8132 22.1469 50.5842 17.0682 48.6572C12.4279 46.8063 8.48278 43.55 5.78572 39.3446C3.08834 35.1386 1.77448 30.1942 2.02825 25.2041C2.20087 21.9929 3.00437 18.8471 4.39286 15.9465C5.7814 13.0458 7.72777 10.447 10.1208 8.29856C12.5139 6.15014 15.3067 4.49419 18.3398 3.42528C21.3729 2.35637 24.5869 1.89544 27.7982 2.06881L27.7982 2.06882Z" fill="#8330C3" stroke="#8330C3" stroke-width="0.5"/>
<path d="M145.037 50.5685L145.039 50.5689C150.417 52.1467 156.159 51.9574 161.421 50.0288C166.683 48.1003 171.188 44.5344 174.273 39.8552L174.273 39.8553L174.276 39.8497C179.61 31.2761 180.056 20.1713 174.092 11.768C172.19 8.98743 169.759 6.60858 166.938 4.76727C164.116 2.92558 160.959 1.65773 157.648 1.0361C154.336 0.414474 150.934 0.451253 147.637 1.14434C144.339 1.83742 141.211 3.17324 138.429 5.07551L138.429 5.07553C120.781 17.1508 124.87 44.5115 145.037 50.5685ZM130.157 35.013L130.1 35.0377C128.987 32.1234 128.441 29.022 128.495 25.9011C128.549 22.6941 129.235 19.5293 130.513 16.5874C131.791 13.6455 133.636 10.9841 135.942 8.75512C138.249 6.52618 140.972 4.77336 143.956 3.59672C146.939 2.42009 150.126 1.84269 153.333 1.8975C156.54 1.9523 159.705 2.63824 162.647 3.91614C165.588 5.19404 168.25 7.03887 170.479 9.34532C172.708 11.6518 174.461 14.3746 175.637 17.3585L175.638 17.36C177.729 22.5663 177.886 28.3496 176.079 33.6615C174.273 38.9735 170.623 43.4624 165.792 46.3147L165.792 46.3146L165.785 46.3191C162.796 48.2215 159.428 49.4492 155.916 49.9167C152.405 50.3842 148.833 50.0802 145.451 49.026C142.068 47.9718 138.956 46.1926 136.332 43.8125C133.708 41.4325 131.634 38.5087 130.256 35.2451L130.157 35.013Z" fill="#8330C3" stroke="#8330C3" stroke-width="0.5"/>
<path d="M222.398 2.06157L222.397 2.06137C217.273 0.311844 211.724 0.237328 206.554 1.84859C201.385 3.45986 196.861 6.67342 193.638 11.0247L193.638 11.0247L193.637 11.0265C187.282 19.7638 186.58 32.6148 193.32 41.4008L193.321 41.402C196.813 45.8956 201.685 49.1172 207.187 50.571C212.689 52.0248 218.516 51.6302 223.772 49.448C229.027 47.2658 233.42 43.4168 236.275 38.4935C239.129 33.5702 240.286 27.8454 239.568 22.2001L239.32 22.2316L239.568 22.1998C238.368 12.8545 231.136 5.06929 222.398 2.06157ZM222.565 48.6968L222.565 48.6969C217.784 50.4845 212.565 50.7398 207.633 49.4274C202.701 48.1152 198.3 45.301 195.04 41.3752C192.54 38.1981 190.867 34.4498 190.172 30.4667C189.478 26.4825 189.784 22.3881 191.062 18.5514C192.341 14.7146 194.553 11.2555 197.499 8.48484C200.445 5.71415 204.033 3.71859 207.941 2.67739C211.849 1.63618 215.955 1.58194 219.889 2.51953C223.823 3.45713 227.462 5.35719 230.481 8.04908C233.499 10.741 235.801 14.1404 237.181 17.942C238.561 21.7437 238.975 25.8285 238.386 29.8296L238.383 29.8477C237.605 34.0864 235.741 38.0508 232.972 41.3534C230.198 44.6618 226.612 47.1923 222.565 48.6968Z" fill="#8330C3" stroke="#8330C3" stroke-width="0.5"/>
<path d="M18.7612 25.9296C18.6283 26.2389 18.449 26.8032 18.2455 27.5256C18.0163 28.3395 17.7629 29.3289 17.5186 30.3213C17.1721 31.7293 16.846 33.1343 16.633 34.0522C16.5452 34.4304 16.4766 34.7258 16.4337 34.9048L16.385 35.108L16.1764 35.0961L15.8433 35.0772L15.5964 35.0632L15.6077 34.8162C15.7292 32.1553 17.0873 25.1905 19.5441 19.8545C20.77 17.1919 22.29 14.8883 24.1052 13.7494C25.0202 13.1753 26.0159 12.8938 27.0829 13.0191C28.1468 13.144 29.2547 13.6702 30.4036 14.6625C32.7659 16.7013 33.6368 19.8718 34.3983 22.6439C34.4192 22.7199 34.44 22.7956 34.4607 22.8709L34.4619 22.8752L34.4619 22.8752C34.9467 24.7693 35.5616 27.6375 35.9883 30.0402C36.2015 31.2409 36.3688 32.3308 36.4488 33.1268C36.4887 33.523 36.5081 33.8563 36.4986 34.097C36.4939 34.2149 36.4819 34.3276 36.4541 34.4189C36.4403 34.4642 36.4179 34.5205 36.3781 34.571C36.3353 34.6252 36.2646 34.6809 36.1651 34.6919L18.7612 25.9296ZM18.7612 25.9296C18.773 25.9288 18.7857 25.928 18.7994 25.9271C18.9128 25.9204 19.0783 25.9144 19.2904 25.9092C19.7138 25.8988 20.313 25.8919 21.0305 25.8877C22.4652 25.8793 24.3678 25.8817 26.2715 25.8888C28.175 25.8959 30.0789 25.9077 31.5161 25.9178C32.2347 25.9229 32.8366 25.9275 33.2633 25.931L33.7618 25.9353C33.832 26.2605 33.9351 26.788 34.0601 27.4278C34.2388 28.3425 34.4624 29.4867 34.6988 30.597C34.9168 31.6206 35.145 32.6104 35.3557 33.3423C35.4606 33.7067 35.5639 34.0169 35.6626 34.2376C35.7112 34.3462 35.7648 34.447 35.8248 34.5235C35.8709 34.5821 35.9863 34.7115 36.1643 34.692L18.7612 25.9296ZM26.9531 14.428L26.9533 14.428C29.2698 14.6858 30.684 16.3345 31.6457 18.4505C32.4184 20.1507 32.8773 22.1039 33.2744 23.794C33.3383 24.0657 33.4005 24.3306 33.4622 24.5865C33.4119 24.5808 33.3583 24.5755 33.3018 24.5706C32.9686 24.5417 32.4993 24.5226 31.9352 24.5092C30.9681 24.4863 29.7056 24.4801 28.3369 24.4733C28.1068 24.4722 27.8736 24.4711 27.6383 24.4698C24.5232 24.4534 21.055 24.4195 19.2284 24.1848C19.7135 22.4935 20.5615 20.0032 21.805 17.9533C23.1281 15.7723 24.8344 14.1904 26.9531 14.428Z" fill="#8330C3" stroke="#8330C3" stroke-width="0.5"/>
<path d="M160.862 35.181V34.6931L160.466 34.9781C158.925 36.0869 157.013 36.5526 155.135 36.2767L155.125 36.2752L155.115 36.2745C149.682 35.9201 145.978 30.7748 146.288 25.5012C146.839 19.7255 151.471 15.4298 155.731 14.9272C157.182 14.8031 157.885 15.1143 158.364 15.4357C158.488 15.5193 158.6 15.6054 158.712 15.692L158.727 15.7038C158.831 15.7849 158.939 15.8684 159.049 15.9417C159.288 16.1001 159.555 16.222 159.909 16.222H160.365L160.12 15.8375C159.266 14.4995 157.806 13.8476 156.271 13.6745C154.736 13.5015 153.092 13.8016 151.812 14.4043L151.802 14.4086L151.793 14.4137C148.993 16.0236 146.805 18.5149 145.569 21.4989C144.948 22.865 144.603 24.3399 144.552 25.8395C144.5 27.3406 144.746 28.837 145.273 30.2432C145.8 31.6495 146.6 32.9381 147.625 34.0354C148.651 35.1325 149.882 36.0169 151.25 36.638C153.466 37.6538 155.842 37.5659 157.656 37.1155C158.564 36.8901 159.341 36.5716 159.896 36.2461C160.173 36.0838 160.404 35.9152 160.568 35.7493C160.722 35.5942 160.862 35.3978 160.862 35.181Z" fill="#8330C3" stroke="#8330C3" stroke-width="0.5"/>
<path d="M210.27 15.7718L210.27 15.7718L210.27 15.7746C210.421 19.0553 210.293 23.0039 210.167 26.8826C210.158 27.1766 210.148 27.4701 210.139 27.7629C210.006 31.9104 209.9 35.9181 210.177 38.8312L210.197 39.0447L210.411 39.0572C211.912 39.1444 213.417 39.0357 214.89 38.7338L214.89 38.7339L214.897 38.7323C217.385 38.1462 219.685 36.9454 221.589 35.2397C223.491 33.5342 224.936 31.3785 225.79 28.97C228.458 21.5704 221.957 12.7204 212.576 13.1793C212.274 13.1793 211.776 13.1793 211.32 13.2481C211.091 13.2827 210.859 13.3364 210.663 13.4236C210.47 13.5092 210.278 13.6421 210.182 13.8545C210.028 14.1937 210.067 14.6093 210.123 14.9435C210.145 15.0742 210.172 15.2045 210.196 15.3219C210.204 15.359 210.211 15.3949 210.218 15.429C210.248 15.5787 210.267 15.6913 210.27 15.7718ZM223 31.0614H222.998L222.924 31.1707C221.301 33.5563 218.499 35.6581 216.02 36.8759C214.781 37.4851 213.642 37.8627 212.789 37.9518C212.361 37.9964 212.028 37.966 211.793 37.8748C211.578 37.7908 211.448 37.6576 211.391 37.4664C211.388 37.4279 211.385 37.3403 211.383 37.1962C211.38 37.0326 211.378 36.8102 211.377 36.5365C211.374 35.9893 211.375 35.2403 211.378 34.3539C211.385 32.5813 211.402 30.2613 211.422 27.9123C211.463 23.2125 211.519 18.402 211.54 17.6235L211.54 17.6235V17.6168C211.54 17.4377 211.519 17.1755 211.496 16.8902L211.496 16.8837L211.496 16.8799C211.472 16.5876 211.447 16.2617 211.434 15.942C211.421 15.6197 211.422 15.313 211.451 15.0607C211.481 14.7944 211.537 14.642 211.591 14.5788C211.608 14.5593 211.651 14.5257 211.742 14.4894C211.83 14.4543 211.945 14.4235 212.084 14.3984C212.363 14.3483 212.714 14.3257 213.085 14.324C213.828 14.3206 214.61 14.4008 214.984 14.4835C219.723 15.5881 222.708 18.2891 224.01 21.434C225.299 24.5442 224.954 28.1132 223 31.0614Z" fill="#8330C3" stroke="#8330C3" stroke-width="0.5"/>
<path d="M198.591 87.4582L199.081 87.4537C199.145 87.132 199.049 86.831 198.88 86.5812C198.712 86.3334 198.465 86.1241 198.197 85.9666C197.928 85.8086 197.625 85.6952 197.331 85.6479C197.042 85.6013 196.736 85.6155 196.484 85.7444L195.952 86.016L196.519 86.2043C196.713 86.2689 197.228 86.481 197.707 86.7458C197.946 86.8781 198.168 87.0186 198.334 87.1551C198.512 87.3018 198.58 87.4066 198.591 87.4582Z" fill="#8330C3" stroke="#8330C3" stroke-width="0.5"/>
<path d="M191.409 92.7547L191.448 92.7677H191.489H192.447L192.559 92.294L192.533 92.2808C192.253 92.1412 192.03 92.03 191.855 91.9204C191.674 91.8073 191.572 91.7123 191.517 91.6197C191.422 91.4595 191.412 91.197 191.756 90.5417C192.05 89.9832 192.533 89.3547 192.967 88.7895C193.023 88.7161 193.079 88.6438 193.133 88.5729C193.363 88.2714 193.574 87.989 193.705 87.7646C193.769 87.6548 193.826 87.5388 193.851 87.4301C193.874 87.3262 193.883 87.1388 193.717 87.0206C193.638 86.9641 193.553 86.9625 193.503 86.9679C193.451 86.9734 193.404 86.9896 193.367 87.0052C193.293 87.0369 193.212 87.0869 193.132 87.144C192.969 87.2601 192.768 87.4346 192.552 87.6465C192.118 88.0713 191.601 88.6683 191.18 89.3042C190.765 89.9325 190.42 90.6318 190.373 91.2546C190.349 91.5721 190.401 91.8843 190.575 92.1545C190.749 92.4256 191.029 92.6272 191.409 92.7547Z" fill="#8330C3" stroke="#8330C3" stroke-width="0.5"/>
<path d="M196.966 90.1061C197.048 89.9904 197.147 89.8107 197.231 89.6195C197.316 89.4284 197.395 89.2068 197.428 89.0072C197.445 88.9081 197.452 88.8002 197.436 88.6982C197.419 88.5957 197.372 88.4736 197.258 88.3899C197.143 88.3057 197.007 88.2946 196.883 88.3139C196.762 88.333 196.628 88.3848 196.484 88.4608C196.253 88.5814 196.129 88.8355 196.064 89.0551C195.996 89.2874 195.974 89.5506 195.993 89.7756C196.002 89.8883 196.023 90.0007 196.059 90.0993C196.093 90.1918 196.153 90.3055 196.263 90.3768C196.394 90.462 196.544 90.4546 196.671 90.3884C196.783 90.3301 196.88 90.2272 196.966 90.1061Z" fill="#8330C3" stroke="#8330C3" stroke-width="0.5"/>
<path d="M191.184 87.8993L191.213 87.8706L191.231 87.8344C191.353 87.5888 191.57 87.0721 191.633 86.721C191.649 86.6338 191.659 86.5327 191.645 86.4405C191.63 86.3508 191.572 86.1861 191.385 86.145C191.242 86.1139 191.112 86.1819 191.032 86.2334C190.936 86.2941 190.827 86.386 190.704 86.5071L190.704 86.5071L190.703 86.5083C190.584 86.6263 190.496 86.8192 190.436 86.9932C190.373 87.1765 190.327 87.3854 190.317 87.5675C190.312 87.6577 190.314 87.7539 190.335 87.8417C190.355 87.9231 190.401 88.0444 190.521 88.1156C190.654 88.194 190.794 88.1659 190.893 88.1197C190.991 88.0742 191.088 87.9961 191.184 87.8993Z" fill="#8330C3" stroke="#8330C3" stroke-width="0.5"/>
<path d="M190.967 94.0569L190.333 93.7108L190.618 94.3749C190.771 94.7332 191.019 95.0436 191.334 95.2733C191.649 95.5031 192.02 95.6438 192.408 95.6807C192.796 95.7175 193.187 95.6491 193.539 95.4827C193.892 95.3163 194.193 95.058 194.412 94.735L194.675 94.345H194.204C193.854 94.345 193.554 94.3876 193.269 94.428C192.582 94.5256 191.982 94.6107 190.967 94.0569Z" fill="#8330C3" stroke="#8330C3" stroke-width="0.5"/>
<path d="M191.903 84.1262L191.895 84.1284L191.886 84.1312L191.504 84.2593L191.583 84.7463C191.677 84.7463 192.1 84.7929 192.535 84.881C192.749 84.9245 192.955 84.9761 193.117 85.0329C193.198 85.0614 193.261 85.0891 193.307 85.1146C193.347 85.1374 193.36 85.1509 193.36 85.1507C193.36 85.1506 193.359 85.1498 193.358 85.1482L193.807 84.9436C193.69 84.4988 193.344 84.2534 192.982 84.143C192.625 84.034 192.222 84.0443 191.903 84.1262Z" fill="#8330C3" stroke="#8330C3" stroke-width="0.5"/>
<path d="M185.209 214.959C183.113 215.591 181.099 216.199 179.941 216.631C179.973 216.17 180 215.674 180.028 215.154C180.13 213.256 180.251 211.029 180.716 208.982C181.346 206.21 182.584 203.883 185.162 203.171L185.163 203.171C187.547 202.51 189.448 203.778 190.782 205.772C192.106 207.751 192.822 210.385 192.835 212.322C192.829 212.328 192.82 212.335 192.81 212.344C192.75 212.391 192.651 212.451 192.507 212.523C192.223 212.667 191.805 212.838 191.284 213.028C190.245 213.408 188.828 213.857 187.319 214.319C186.626 214.531 185.913 214.746 185.209 214.959ZM179.322 209.684L179.322 209.684L179.321 209.691C178.822 212.052 178.547 214.455 178.499 216.867L178.499 216.867V216.872C178.499 217.029 178.486 217.174 178.472 217.318C178.47 217.337 178.469 217.356 178.467 217.375C178.453 217.526 178.439 217.695 178.463 217.844C178.49 218.008 178.566 218.171 178.742 218.277C178.9 218.373 179.107 218.403 179.346 218.398L179.372 218.398L179.397 218.392C180.545 218.129 181.644 217.687 182.653 217.081C183.557 216.725 185.681 216.013 187.766 215.314L187.791 215.306C189.871 214.608 191.914 213.924 192.612 213.635C193.158 213.409 193.602 213.205 193.861 212.865C194.137 212.505 194.172 212.045 194.073 211.415L194.073 211.414C193.779 209.618 193.22 207.647 192.245 205.964C191.268 204.278 189.866 202.869 187.888 202.23C185.469 201.448 183.526 202.433 182.103 204.038C180.688 205.635 179.76 207.867 179.322 209.684Z" fill="#8330C3" stroke="#8330C3" stroke-width="0.5"/>
<mask id="path-22-outside-1_656_314" maskUnits="userSpaceOnUse" x="29.3994" y="0.284668" width="197" height="278" fill="black">
<rect fill="white" x="29.3994" y="0.284668" width="197" height="278"/>
<path d="M221.9 174.676C220.708 174.204 211.837 172.34 211.808 172.297C211.572 170.611 211.682 169.898 211.449 168.829C211.38 168.546 211.381 168.25 211.452 167.967C211.522 167.684 211.66 167.423 211.853 167.205C215.88 164.124 219.275 160.296 221.852 155.93C228.211 144.207 227.054 127.637 217.713 117.372C216.722 116.268 215.508 115.439 214.512 114.416C214.843 114.282 215.135 114.067 215.36 113.791C215.586 113.514 215.737 113.185 215.801 112.833C215.865 112.482 215.839 112.121 215.725 111.782C215.611 111.444 215.413 111.14 215.15 110.899C215.811 110.848 216.444 110.609 216.975 110.212C217.505 109.814 217.912 109.274 218.146 108.654C218.381 108.033 218.434 107.359 218.3 106.71C218.166 106.061 217.85 105.463 217.388 104.987C219.785 104.987 222.19 101.566 219.464 100.031C222.665 99.7127 223.716 94.8865 220.583 93.6395C221.194 93.5048 221.739 93.1611 222.123 92.6678C222.507 92.1745 222.707 91.5624 222.688 90.9373C222.67 90.3123 222.433 89.7134 222.02 89.244C221.607 88.7747 221.042 88.4643 220.425 88.3666C220.923 87.7731 221.263 87.0635 221.414 86.3035C221.565 85.5435 221.521 84.7577 221.288 84.019C221.027 83.3681 220.528 82.8407 219.893 82.5436C219.258 82.2464 218.534 82.2017 217.867 82.4185C218.169 81.7021 218.238 80.9085 218.063 80.1508C217.888 79.3931 217.478 78.7101 216.892 78.1989C216.133 77.6769 215.275 77.3143 214.372 77.1329C213.468 76.9516 212.537 76.9554 211.635 77.1441C211.627 76.4379 211.387 75.7541 210.95 75.1991C210.514 74.6441 209.906 74.2491 209.221 74.0754C208.119 73.8492 206.975 73.9504 205.93 74.3664C205.202 74.5905 205.493 74.624 205.018 74.2209C204.028 73.3887 203.534 72.3745 201.998 72.4138C201.072 72.4386 199.585 73.1006 199.425 74.1598C198.91 73.6347 198.292 73.2215 197.61 72.9461C196.928 72.6707 196.196 72.539 195.461 72.5593C194.392 72.5593 192.921 72.9595 193.193 74.349C192.696 74.0192 192.11 73.8482 191.514 73.8587C190.917 73.8692 190.338 74.0607 189.853 74.4078C189.367 74.7549 188.999 75.2413 188.797 75.8024C188.594 76.3636 188.567 76.973 188.719 77.55C185.954 76.4151 179.865 81.1774 182.965 83.7818C179.764 83.4806 176.348 89.1843 179.929 90.9739C179.247 91.1358 178.631 91.5021 178.164 92.0238C177.696 92.5454 177.399 93.1975 177.312 93.8927C177.225 94.5879 177.352 95.2931 177.677 95.9138C178.002 96.5345 178.509 97.0411 179.13 97.3658C176.748 98.3247 179.13 100.851 180.408 101.361C180.307 101.391 180.219 101.455 180.161 101.543C180.102 101.63 180.076 101.735 180.087 101.84C166.402 97.7354 163.609 99.5265 160.912 97.0152C159.297 95.5121 157.955 93.9145 156.436 92.3955C151.915 87.8708 146.959 83.8032 141.639 80.252C140.694 79.5637 137.531 76.7352 136.364 77.582C136.108 77.2139 136.204 76.3831 136.092 75.9815C135.656 73.7481 133.223 72.6714 133.182 75.4388C131.767 74.0202 130.567 72.4026 129.619 70.6372C113.135 43.1419 114.101 43.8359 112.351 40.9797C111.986 40.5391 111.675 40.0565 111.424 39.5422C111.279 38.9602 111.776 38.3782 112.063 37.7671C118.228 25.1652 113.863 11.6525 102.805 5.11808C86.1839 -5.19941 64.9218 6.5047 64.1201 25.9742C64.0123 29.4896 64.6438 32.9885 65.9739 36.2443C67.3039 39.5002 69.3028 42.4405 71.8412 44.8749C74.3796 47.3093 77.4008 49.1835 80.7094 50.3763C84.018 51.5691 87.5402 52.0539 91.048 51.7992C94.1202 51.7214 97.1426 51.0059 99.9236 49.6982C101.639 51.3744 110.899 66.911 136.881 106.742C140.181 111.802 144.108 118.541 148.771 123.729C150.449 125.33 152.655 124.448 154.412 123.313C155.235 122.783 155.876 122.013 156.249 121.107C156.621 120.202 156.707 119.204 156.494 118.248C160.739 121.312 165.764 123.112 170.989 123.441C169.778 127.596 169.154 131.899 169.136 136.226C168.907 138.492 168.502 140.737 167.924 142.94C167.284 144.906 167.271 147.023 167.889 148.997C163.638 150.267 159.551 152.031 155.712 154.254C147.286 159.009 146.416 161.597 145.42 161.891C145.302 161.891 127.704 159.034 127.704 159.034C126.937 156.186 121.938 137.971 121.884 137.76C121.485 136.322 121.884 136.159 120.511 135.97L76.1705 131.224C75.3877 131.144 74.8436 130.953 74.3008 131.515C73.342 132.491 73.8367 133.37 74.1553 134.504L79.8153 154.845C73.9953 155.572 38.1831 159.109 33.8995 159.572C32.9417 159.629 31.9935 159.796 31.0739 160.07C30.2271 160.55 30.4046 161.344 30.4366 162.176C30.457 162.543 30.4773 230.751 30.4773 231.239C30.333 232.479 30.4268 233.735 30.7538 234.94C31.3358 235.534 32.0425 235.991 32.8228 236.279C33.9007 236.827 35.0138 237.303 36.1548 237.705C37.265 237.862 37.5196 237.495 43.1854 235.813C43.6568 235.668 43.6641 235.813 43.6961 234.713C44.6812 207.795 44.009 211.343 44.0337 171.304C53.8943 173.46 122.871 188.473 126.064 188.978C122.831 195.661 120.674 202.813 119.671 210.169C117.779 223.056 121.363 230.165 122.564 237.767C122.676 238.295 122.6 238.846 122.35 239.325C122.099 239.803 121.689 240.178 121.19 240.386C120.039 241.076 113.839 243.919 115.996 245.406C118.92 247.418 123.49 245.806 126.559 245.134C127.932 245.014 129.258 244.57 130.426 243.839C130.961 243.226 131.361 242.508 131.601 241.731C131.84 240.954 131.914 240.136 131.817 239.328C131.641 235.579 131.926 231.822 132.664 228.142C133.722 224.352 135.304 220.728 137.362 217.375C135.779 225.484 136.044 234.162 139.664 245.748C139.886 246.223 140 246.741 140 247.265C140 247.789 139.886 248.307 139.664 248.782C139.082 249.679 137.873 250.029 137.01 250.557C135.765 251.341 130.619 253.417 133.735 255.015C135.893 256.135 139.008 255.742 141.262 255.256C143.516 254.77 146.855 254.266 148.453 252.396C150.05 250.526 149.365 246.273 149.507 243.75C149.975 237.134 152.416 230.809 156.515 225.595C156.515 229.99 156.726 273.028 156.748 273.173C156.953 273.755 162.515 276.674 162.661 276.751C163.388 277.141 163.679 277.488 164.407 277.188C165.718 276.466 166.964 275.631 168.13 274.692C169.393 273.849 170.032 273.785 170.022 272.185C169.85 255.064 169.294 246.651 169.351 246.286C170.839 245.748 173.854 244.667 176.157 243.794C178.058 243.066 179.334 242.123 179.213 240.086C179.213 239.922 179.335 227.706 179.421 227.045C179.677 225.91 180.572 225.736 181.595 225.445C187.045 223.99 189.146 222.971 193.724 222.006C194.172 222.423 194.092 225.619 194.124 226.402C194.124 226.548 194.549 237.985 194.795 238.188C195.563 238.844 198.151 237.038 198.838 236.688C200.439 235.903 202.163 235.343 203.64 234.483C205.894 233.174 205.24 229.782 205.365 227.514C205.525 224.11 205.525 220.69 205.605 217.285C205.765 210.605 206.452 204.005 205.605 197.343C205.176 194.975 204.462 192.667 203.48 190.471C203.48 190.471 206.71 189.598 210.014 182.752C210.487 182.612 210.976 182.537 211.469 182.528C212.01 188.938 211.715 238.191 211.76 238.46C211.999 239.021 213.361 239.643 213.804 240.06C213.95 240.178 217.065 242.519 217.272 242.534C218.168 242.534 220.004 240.696 220.676 240.184C221.971 239.179 222.107 239.179 222.123 237.693V176.945C222.099 176.338 222.491 175.123 221.9 174.676ZM110.583 14.7794C114.577 22.069 115.063 31.221 110.001 38.3505C109.588 38.0611 109.226 37.7046 108.93 37.2957C108.594 36.6089 108.85 36.6555 109.441 36.0807C110.229 35.3954 111.709 33.9215 111.535 33.7629C111.36 33.6043 109.775 34.9706 109.009 35.7126C108.051 36.4488 108.354 36.4809 107.635 35.9687C106.968 35.2298 106.264 34.5256 105.525 33.8589C106.5 32.8841 107.853 32.2584 108.466 30.9664C109.217 29.3658 107.363 28.794 106.07 29.0326C103.622 29.6554 103.104 30.5255 102.649 30.4556C102.08 29.9997 101.545 29.5032 101.048 28.9701C102.043 28.313 102.998 27.5979 103.909 26.8283C105.313 25.6556 108.895 23.2155 108.71 21.1392C108.419 17.5133 99.3983 23.2926 96.2395 24.6749C95.9873 24.5133 95.7536 24.3244 95.5426 24.1118C96.3071 23.5059 96.8945 22.7054 97.2429 21.7942C97.5914 20.883 97.6881 19.8948 97.5228 18.9334C97.9666 18.1957 106.468 13.8612 105.089 11.4226C103.327 8.36712 96.4083 13.3884 93.539 14.9685C91.5399 14.5569 89.5023 14.3617 87.4614 14.3865C89.7894 12.7118 96.0358 7.76038 97.322 6.68512C98.0495 6.07548 99.2135 5.08461 98.9225 4.04573C103.943 6.15238 108.069 9.94975 110.583 14.7794V14.7794ZM105.345 33.389C104.514 32.5581 103.744 31.6633 102.949 30.831C103.731 30.3683 107.967 28.3226 108.254 30.1443C108.435 31.2952 106.119 32.8768 105.351 33.389H105.345ZM100.232 28.4419C99.1941 27.3579 98.0993 26.3297 96.9525 25.3617C98.7207 24.243 100.546 23.2178 102.422 22.2901C103.44 21.778 106.177 20.0843 107.599 20.6896C109.292 21.4069 106.224 23.6287 105.601 24.1715C103.897 25.6541 102.06 27.0786 100.238 28.4346L100.232 28.4419ZM92.5772 16.5836C93.7762 16.0132 95.4101 17.1656 96.0125 18.3107C96.1416 18.6017 96.2358 18.9069 96.2933 19.22C95.6473 19.7395 89.4912 23.5589 88.6065 24.2704L84.2662 24.6225C84.1442 23.6308 84.1096 22.6302 84.1629 21.6325C84.3157 21.535 90.5111 17.4813 92.5831 16.5763L92.5772 16.5836ZM84.2502 18.0386C84.4786 15.6916 87.3057 15.7819 89.2525 15.8008C90.1747 15.8137 91.0939 15.9077 91.9996 16.0816C89.3217 17.5013 86.7289 19.0759 84.2342 20.7973C84.1932 19.8755 84.2005 18.9523 84.256 18.0313L84.2502 18.0386ZM94.5328 15.1897C96.0642 14.145 97.6689 13.2118 99.3343 12.3975C100.516 11.8155 102.834 10.6078 104.136 11.1986C105.942 11.9814 103.305 14.0111 102.535 14.6178C100.906 15.9694 99.1931 17.2164 97.4064 18.3514C97.2109 17.6351 96.8493 16.9749 96.3511 16.4243C95.8529 15.8737 95.2319 15.4483 94.5386 15.1824L94.5328 15.1897ZM92.0811 23.9678C91.4562 24.1213 90.8107 24.1739 90.1692 24.1234C90.84 23.6127 91.5762 23.1966 92.247 22.6873C92.109 22.8659 92.0213 23.0782 91.9932 23.3021C91.965 23.526 91.9974 23.7533 92.0869 23.9605L92.0811 23.9678ZM86.9667 26.0441C85.9482 26.7803 84.8904 27.4845 83.9316 28.2833L83.9577 26.2463C84.9578 26.1185 85.9644 26.0485 86.9725 26.0368L86.9667 26.0441ZM88.2355 25.8433C89.7749 25.6294 90.6566 25.5057 92.2411 25.4213C92.3802 25.8389 92.4872 26.2664 92.5612 26.7003C92.4376 27.0553 90.1299 27.9952 83.5474 32.836C83.5474 32.4257 83.7293 30.0279 83.8035 29.6248C84.9297 28.4405 88.2413 25.836 88.2413 25.836L88.2355 25.8433ZM92.4783 27.4918C92.5205 27.6373 93.5506 31.7506 93.8766 33.2435C93.6074 33.68 87.9299 34.3696 83.4514 33.8778C83.6915 33.0849 90.2128 29.1883 92.4841 27.4845L92.4783 27.4918ZM92.7213 22.3687L96.2366 19.8122C96.2834 20.3013 96.2234 20.7947 96.0606 21.2582C95.8977 21.7218 95.6361 22.1444 95.2937 22.4967C95.0362 22.7543 94.7001 23.0555 94.7001 23.0555C94.3102 22.7543 93.3571 22.0384 92.7271 22.3614L92.7213 22.3687ZM96.4127 3.19164C92.2411 4.11848 88.4217 7.28313 84.9704 9.58496C81.0643 12.1377 77.3711 15.0023 73.9269 18.1506C72.5214 19.3961 70.7259 21.5699 68.8605 22.0661C66.7042 22.6248 67.0883 19.9737 67.7111 18.4402C69.0514 16.282 70.7161 14.343 72.6465 12.6914C73.2794 12.0279 80.1965 5.23011 81.8029 3.5001C86.5317 1.92469 91.6261 1.81464 96.4185 3.18437L96.4127 3.19164ZM65.5562 32.5741C64.2793 26.8187 65.0726 20.7973 67.7967 15.569C70.5207 10.3406 75.0011 6.24027 80.4497 3.98899C79.4661 4.85035 77.0857 7.22348 75.9304 8.37876C74.5555 9.75229 61.8037 21.0534 67.6529 22.6175C70.0813 23.2723 72.8909 19.5969 74.4914 18.2888C80.0598 13.3514 86.1979 9.09638 92.7751 5.61424C94.0565 4.70266 95.4984 4.04117 97.0252 3.66452C98.3987 3.50592 98.6257 4.31927 97.792 5.26503C96.1216 6.92957 86.9769 13.787 86.8299 13.8787C86.0852 14.2599 85.2508 14.4314 84.4161 14.3749C81.9033 14.5742 82.2016 14.9307 82.1448 17.6152C77.5987 21.1962 73.2464 25.0166 69.1064 29.0603C67.9555 30.2592 66.0858 31.7171 65.7978 33.4253C65.6996 33.1469 65.6189 32.8626 65.5562 32.5741ZM66.3274 34.2649C65.7861 32.6047 68.9799 30.0133 73.179 26.3103C76.2345 23.6244 79.4589 21.1799 82.6555 18.6875C82.6744 19.7846 82.6744 21.3342 82.6744 21.3342C82.6744 21.3342 81.3111 22.7194 75.1084 28.6587C74.5773 29.1752 66.9196 36.072 66.3303 34.2649H66.3274ZM66.355 35.2746C69.6463 35.0186 72.8953 32.238 75.0691 30.0468C77.5644 27.5311 79.9812 25.2962 82.6351 22.8096C82.6351 22.974 82.6846 28.2964 82.622 28.8639C81.5279 30.2665 76.1182 35.0666 73.4933 38.3491C72.1998 39.7735 71.823 42.1627 73.8076 42.1627C75.1986 42.1627 76.2811 40.8197 77.2283 39.9889C79.1533 38.3142 82.6992 35.1524 82.7181 35.1335C84.7551 36.0749 90.2361 35.5264 92.57 35.0186C86.0108 40.2188 83.0455 42.1961 77.547 47.9318C72.359 45.2691 68.3641 40.7501 66.3579 35.2746H66.355ZM74.0273 38.7783C76.6984 35.6619 79.5657 32.7192 82.6119 29.9682C82.5275 31.5687 82.3514 33.1692 82.1899 34.1965C81.6981 34.7523 75.7326 40.0922 75.5856 40.2115C72.744 42.5381 71.7662 41.3872 74.0302 38.7783H74.0273ZM78.2148 48.2519C83.0439 43.5038 88.1795 39.0778 93.5885 35.0026C94.1632 34.8105 95.0435 35.0026 94.85 35.8174C94.7379 36.3135 92.8522 37.4179 92.4536 37.7351C88.6109 40.6931 79.7004 48.6171 79.5563 48.7641C79.4123 48.7131 78.3603 48.3392 78.2148 48.2519ZM80.3551 49.0332C83.1808 45.905 94.7336 36.6904 94.882 36.5696C95.1541 37.9111 95.5847 39.2061 95.9208 40.5316C94.6862 41.2788 93.5061 42.1126 92.3895 43.027C91.6868 43.7923 90.6319 45.1818 91.8075 45.9821C92.9832 46.7823 95.9936 45.726 97.2245 45.1091C97.5444 46.3076 98.0874 47.435 98.8251 48.4323C94.5386 50.7822 84.1905 51.4442 80.3566 49.0332H80.3551ZM96.0562 41.2475C96.3174 42.3719 96.635 43.4825 97.0077 44.5751C96.82 45.3302 91.3434 47.0835 91.9574 44.5751C92.3284 43.0502 94.751 41.7989 96.0576 41.2475H96.0562ZM111.423 42.1787H111.311C111.086 43.4722 109.361 42.8014 108.61 43.5362C107.859 44.271 107.941 45.8555 107.009 46.7372C105.728 47.9478 104.804 46.8173 103.461 46.5452C101.86 46.2105 101.144 48.2563 99.7053 48.0482C98.2663 47.8401 98.0874 45.4786 97.76 44.4936C96.3879 40.3716 94.0599 31.7477 93.2058 28.3692C94.5488 28.9133 97.3613 28.0782 97.3613 26.2914C104.967 34.3667 100.607 29.8096 109.234 38.4378C110.321 39.4782 111.744 40.5956 111.424 42.1787H111.423ZM134.1 78.9337C133.841 78.2268 133.475 77.5638 133.015 76.968C132.807 76.6508 132.455 75.6745 132.088 75.4984C132.567 75.7385 132.983 76.3613 133.494 75.9146C134.004 75.4679 133.494 73.9881 134.549 74.3141C135.276 74.5396 135.491 76.3598 135.459 76.9025C135.458 77.3126 135.341 77.714 135.12 78.0595C134.899 78.4051 134.584 78.6806 134.212 78.8537L134.1 78.9337ZM144.824 117.608C144.316 116.934 143.897 116.204 143.386 115.53C146.677 115.866 151.041 113.548 151.696 110.097C152.132 110.96 153.296 112.636 153.056 113.589C152.7 114.857 151.885 115.946 150.769 116.645C149.394 117.736 146.222 119.457 144.824 117.608ZM155.691 120.167C155.345 121.291 154.644 122.271 153.693 122.962C152.742 123.653 151.592 124.017 150.417 124C148.946 123.985 146.779 120.455 145.564 118.762C148.765 120.217 152.914 117.35 153.567 114.09C154.719 115.687 156.026 118.117 155.691 120.167ZM169.95 135.554C170.063 131.74 170.545 127.946 171.389 124.225C172.553 120.588 176.793 114.264 176.191 113.869C175.354 113.326 171.338 122.616 171.256 122.762C169.539 122.703 167.839 122.409 166.202 121.889C162.962 120.82 159.836 119.433 156.868 117.749C155.674 116.662 152.304 109.671 138.86 86.331C138.412 85.5802 135.088 79.2989 134.8 79.4444C135.964 78.8522 136.206 77.4933 137.517 78.2455C142.077 81.06 146.425 84.2054 150.525 87.6565C153.32 90.1063 155.988 92.6992 158.515 95.4248C159.52 96.7762 160.829 97.8727 162.335 98.6259C167.555 99.9528 166.051 98.4091 178.651 101.841C182.231 102.8 185.57 104.137 189.103 105.256C189.675 105.545 190.307 105.695 190.948 105.695C191.589 105.695 192.222 105.545 192.794 105.256C193.272 104.896 193.66 104.431 193.929 103.897C194.105 103.595 195.288 101.293 195.064 100.942C194.84 100.592 194.121 100.766 193.641 100.638C192.883 100.391 192.175 100.013 191.549 99.5192C186.971 96.0272 188.033 89.3065 191.212 84.4497C192.088 83.0293 193.452 81.9778 195.048 81.4931C196.947 81.2399 198.87 81.2399 200.769 81.4931C200.769 87.6332 204.933 90.3279 205.803 92.5192C205.819 92.8904 205.867 93.2595 205.949 93.6221C206.251 93.9902 205.949 93.8636 206.385 93.7996C206.822 93.7356 207.168 93.2874 207.52 93.1914C208.478 92.9513 209.374 93.414 209.294 94.4689C209.148 96.26 206.641 97.827 205.09 96.6601C203.717 100.11 202.31 105.064 204.148 108.582C204.963 109.799 206.218 110.651 207.648 110.961C209.464 111.671 211.186 112.6 212.777 113.726C205.719 113.32 199.205 121.656 190.213 120.294C188.564 120.061 186.995 119.434 185.641 118.466C184.286 117.498 183.184 116.217 182.43 114.733C180.146 109.952 183.408 103.771 182.917 103.59C182.772 103.537 182.66 104.076 182.562 104.346C180.902 108.955 180.134 114.189 184.044 118.01C188.183 122.053 193.938 121.845 198.731 119.783C203.317 117.813 210.163 112.643 213.506 114.558C217.962 117.67 221.294 122.136 223.006 127.294C229.917 147.015 219.782 166.784 201.495 171.081C200.096 171.518 198.625 171.676 197.165 171.545C195.736 171.247 194.452 170.469 193.527 169.339C192.554 168.593 191.87 167.53 191.594 166.335C192.008 161.603 197.617 152.61 202.045 147.799C202.566 147.217 203.387 146.571 203.937 146.017C204.687 145.252 205.007 145.026 204.783 143.939C204.339 142.211 203.989 140.46 203.734 138.694C203.398 134.88 204.111 127.345 203.554 127.214C202.997 127.083 202.752 134.018 202.995 137.425C203.371 142.705 205.01 144.307 203.682 145.544C200.29 148.475 197.435 151.974 195.243 155.883C193.971 156.669 182.5 155.21 172.727 150.961C165.577 148.143 169.59 143.99 169.946 135.554H169.95ZM210.95 172.164C210 171.909 204.597 171.08 203.862 171.099C206.036 170.441 207.984 169.242 210.126 168.539C210.925 168.283 210.893 168.301 210.989 169.037C211.034 170.079 211.019 171.123 210.945 172.164H210.95ZM158.668 153.727C161.844 152.21 165.11 150.89 168.447 149.774C170.682 151.332 173.162 152.506 175.784 153.247C177.808 153.995 179.873 154.63 181.969 155.147C186.178 156.088 190.463 156.644 194.773 156.809C194.304 157.396 193.887 158.024 193.529 158.684C192.54 160.642 191.691 162.667 190.99 164.744C190.812 165.191 190.746 165.674 190.799 166.152C190.851 166.629 191.019 167.087 191.29 167.484C190.583 167.228 189.818 167.177 189.084 167.339C188.573 167.484 188.02 168.015 187.638 168.145C186.586 167.928 147.738 161.82 147.591 161.795C150.898 158.615 154.623 155.9 158.664 153.727H158.668ZM74.8872 131.692C75.0327 131.708 119.659 136.51 119.808 136.541C120.169 136.615 120.244 136.626 120.327 136.709C120.601 137 129.225 169.192 129.258 169.338C129.482 170.298 129.994 171.048 129.003 171.289C126.617 161.929 125.955 158.613 121.173 141.819C120.882 140.801 120.532 137.84 119.686 137.376C119.531 137.336 120.436 137.456 74.1888 132.471L74.8872 131.692ZM136.194 167.468C135.143 167.703 134.058 167.741 132.993 167.58C131.922 167.452 129.38 167.348 129.38 166.349L136.194 167.468ZM129.003 165.551L128.843 164.752L139.711 166.669C136.27 167.358 132.519 166.096 129.003 165.551ZM132.359 168.267L129.967 168.872L129.642 167.948L132.359 168.267ZM150.577 166.511C150.577 167.358 150.577 167.788 150.586 168.383C150.167 168.561 130.172 174.126 130.026 174.166C129.37 174.42 128.654 174.48 127.965 174.34C77.0072 164.279 84.1687 166.271 83.5373 166.079C82.8825 165.76 83.0105 165.44 82.8185 164.561C131.944 172.737 127.601 172.261 129.019 172.104C129.169 172.075 150.427 166.552 150.577 166.511V166.511ZM130.281 171.144C130.281 169.946 129.786 169.786 130.921 169.543L140.828 167.275C141.212 167.193 141.899 167.179 141.947 166.683C142.014 165.997 141.192 166.073 129.946 164.112C128.763 163.905 128.346 163.982 128.346 162.511L149.443 166.184L130.281 171.144ZM74.1262 133.031C109.119 136.814 82.9582 133.798 118.989 137.862C120.508 141.533 127.853 169.062 128.333 171.497C101.918 167.096 87.7568 164.827 82.9145 163.906C82.7792 163.749 74.1713 133.187 74.1262 133.031ZM43.0254 234.908L36.8416 236.906C36.6335 219.712 36.5375 174.324 36.5375 168.795C38.7315 169.322 40.8714 170.053 42.9293 170.978C43.3993 172.581 43.0254 172.68 43.0254 234.908ZM133.702 221.948C133.142 223.146 132.887 224.537 132.279 225.705C131.176 227.796 126.971 226.975 125.149 226.39C124.029 226.043 122.995 225.461 122.117 224.684C121.239 223.906 120.537 222.95 120.057 221.88C119.306 219.354 119.865 215.999 120.057 213.425C120.958 205.003 123.241 196.787 126.812 189.107C127.743 189.263 140.251 192.15 144.136 192.745C141.457 199.082 139.402 205.665 137.998 212.4C137.259 216.541 135.688 217.829 133.702 221.948V221.948ZM156.323 222.733C151.846 231.596 153 228.502 150.881 233.917C149.538 237.118 145.675 236.66 142.89 235.899C141.314 235.493 139.91 234.593 138.884 233.33C137.857 232.068 137.262 230.51 137.185 228.884C137.101 226.927 137.165 224.966 137.377 223.018C137.597 219.758 138.013 216.514 138.624 213.304C140.041 205.699 144.051 193.079 144.984 192.788C145.566 192.8 155.94 194.715 156.026 194.834C156.058 194.875 156.349 221.675 156.323 222.733V222.733ZM203.637 192.88C206.138 200.523 205.338 205.117 204.868 218.433C204.722 222.715 204.612 226.981 204.42 231.218C204.324 233.198 203.142 233.725 201.479 234.419C199.433 235.343 197.5 236.479 195.406 237.309C194.831 231.685 194.959 225.931 194.543 220.285C193.014 220.941 185.085 223.272 179.89 224.873C178.947 225.164 178.659 225.079 178.531 226.07C178.042 230.009 178.967 233.791 178.276 240.309C178.1 241.716 177.444 242.212 176.198 242.783C173.912 243.837 171.404 244.508 169.102 245.402C169.102 245.064 169.339 210.67 169.342 208.197C169.922 207.368 170.681 206.681 171.563 206.185C181.944 198.543 186.303 198.754 195.822 194.757C198.304 193.747 200.659 192.449 202.838 190.89C203.151 191.533 203.418 192.199 203.637 192.88ZM202.678 190.003C193.001 196.954 180.786 196.234 169.438 206.783V195.276C169.438 194.3 169.285 194.443 170.045 194.156C173.96 192.682 208.082 183.358 208.271 183.306C207.027 185.992 205.097 188.302 202.675 190.003H202.678ZM216.422 240.981C215.431 240.389 212.809 239 212.523 237.78C212.377 236.404 212.803 185.726 212.523 181.762L216.278 180.723C216.323 185.574 216.419 240.981 216.419 240.981H216.422ZM165.152 186.471C163.746 186.773 163.988 186.762 163.988 188.071C163.988 188.217 164.012 275.194 163.988 275.341C163.948 275.449 163.88 275.545 163.792 275.618C163.703 275.691 163.597 275.74 163.484 275.76C163.37 275.779 163.254 275.768 163.146 275.729C163.038 275.689 162.943 275.622 162.869 275.533C162.723 275.279 162.892 186.504 162.869 186.472C162.723 186.433 165.08 186.941 31.6661 160.391C31.8116 160.374 78.9787 155.498 79.8968 155.437C79.9361 155.582 82.5464 165.235 82.7894 166.08C83.156 166.768 84.3899 166.717 85.2498 166.879C132.285 175.638 128.667 175.162 129.805 174.838C150.846 168.82 150.958 169.185 151.066 168.827C151.119 168.503 151.137 168.173 151.118 167.845C151.118 167.573 151.211 166.314 151.028 166.162C150.637 165.836 128.068 161.976 128.068 161.976C127.843 161.283 127.66 160.577 127.519 159.863C140.032 161.824 187 169.085 187 169.085C187.752 169.211 188.503 169.812 189.222 169.812C188.305 170.26 187.501 170.91 186.872 171.714C186.249 172.754 186.872 173.315 188.007 173.154C187.24 173.232 186.73 174.398 187.304 174.925C187.669 175.129 188.083 175.228 188.501 175.211C188.918 175.195 189.323 175.063 189.67 174.831C189.286 175.151 189.67 175.581 189.989 175.725C190.597 176.016 191.589 175.359 191.971 175.037C193.001 174.132 194.792 171.982 194.511 171.836C194.23 171.691 193.033 173.412 192.267 174.164C192.011 174.372 190.66 175.552 190.213 175.202C189.485 174.62 193.105 172.164 189.485 173.953C189.101 174.147 187.68 174.818 188.014 173.953C188.222 173.427 190.763 172.789 190.572 172.18C190.382 171.57 186.305 173.699 187.648 171.878C188.094 171.27 190.012 170.518 190.108 169.841C190.204 169.165 188.508 169.617 188.414 168.771C188.321 167.924 189.616 167.867 190.127 167.841C190.587 167.845 191.046 167.889 191.499 167.972C191.882 168.18 192.346 169.075 192.618 169.411C193.205 170.279 193.985 170.999 194.897 171.515C195.809 172.03 196.829 172.327 197.875 172.382C199.873 172.479 201.617 171.454 203.564 171.775C224.768 175.274 217.427 174.217 219.034 174.477C207.165 177.218 171.241 185.16 165.152 186.471Z"/>
</mask>
<path d="M221.9 174.676C220.708 174.204 211.837 172.34 211.808 172.297C211.572 170.611 211.682 169.898 211.449 168.829C211.38 168.546 211.381 168.25 211.452 167.967C211.522 167.684 211.66 167.423 211.853 167.205C215.88 164.124 219.275 160.296 221.852 155.93C228.211 144.207 227.054 127.637 217.713 117.372C216.722 116.268 215.508 115.439 214.512 114.416C214.843 114.282 215.135 114.067 215.36 113.791C215.586 113.514 215.737 113.185 215.801 112.833C215.865 112.482 215.839 112.121 215.725 111.782C215.611 111.444 215.413 111.14 215.15 110.899C215.811 110.848 216.444 110.609 216.975 110.212C217.505 109.814 217.912 109.274 218.146 108.654C218.381 108.033 218.434 107.359 218.3 106.71C218.166 106.061 217.85 105.463 217.388 104.987C219.785 104.987 222.19 101.566 219.464 100.031C222.665 99.7127 223.716 94.8865 220.583 93.6395C221.194 93.5048 221.739 93.1611 222.123 92.6678C222.507 92.1745 222.707 91.5624 222.688 90.9373C222.67 90.3123 222.433 89.7134 222.02 89.244C221.607 88.7747 221.042 88.4643 220.425 88.3666C220.923 87.7731 221.263 87.0635 221.414 86.3035C221.565 85.5435 221.521 84.7577 221.288 84.019C221.027 83.3681 220.528 82.8407 219.893 82.5436C219.258 82.2464 218.534 82.2017 217.867 82.4185C218.169 81.7021 218.238 80.9085 218.063 80.1508C217.888 79.3931 217.478 78.7101 216.892 78.1989C216.133 77.6769 215.275 77.3143 214.372 77.1329C213.468 76.9516 212.537 76.9554 211.635 77.1441C211.627 76.4379 211.387 75.7541 210.95 75.1991C210.514 74.6441 209.906 74.2491 209.221 74.0754C208.119 73.8492 206.975 73.9504 205.93 74.3664C205.202 74.5905 205.493 74.624 205.018 74.2209C204.028 73.3887 203.534 72.3745 201.998 72.4138C201.072 72.4386 199.585 73.1006 199.425 74.1598C198.91 73.6347 198.292 73.2215 197.61 72.9461C196.928 72.6707 196.196 72.539 195.461 72.5593C194.392 72.5593 192.921 72.9595 193.193 74.349C192.696 74.0192 192.11 73.8482 191.514 73.8587C190.917 73.8692 190.338 74.0607 189.853 74.4078C189.367 74.7549 188.999 75.2413 188.797 75.8024C188.594 76.3636 188.567 76.973 188.719 77.55C185.954 76.4151 179.865 81.1774 182.965 83.7818C179.764 83.4806 176.348 89.1843 179.929 90.9739C179.247 91.1358 178.631 91.5021 178.164 92.0238C177.696 92.5454 177.399 93.1975 177.312 93.8927C177.225 94.5879 177.352 95.2931 177.677 95.9138C178.002 96.5345 178.509 97.0411 179.13 97.3658C176.748 98.3247 179.13 100.851 180.408 101.361C180.307 101.391 180.219 101.455 180.161 101.543C180.102 101.63 180.076 101.735 180.087 101.84C166.402 97.7354 163.609 99.5265 160.912 97.0152C159.297 95.5121 157.955 93.9145 156.436 92.3955C151.915 87.8708 146.959 83.8032 141.639 80.252C140.694 79.5637 137.531 76.7352 136.364 77.582C136.108 77.2139 136.204 76.3831 136.092 75.9815C135.656 73.7481 133.223 72.6714 133.182 75.4388C131.767 74.0202 130.567 72.4026 129.619 70.6372C113.135 43.1419 114.101 43.8359 112.351 40.9797C111.986 40.5391 111.675 40.0565 111.424 39.5422C111.279 38.9602 111.776 38.3782 112.063 37.7671C118.228 25.1652 113.863 11.6525 102.805 5.11808C86.1839 -5.19941 64.9218 6.5047 64.1201 25.9742C64.0123 29.4896 64.6438 32.9885 65.9739 36.2443C67.3039 39.5002 69.3028 42.4405 71.8412 44.8749C74.3796 47.3093 77.4008 49.1835 80.7094 50.3763C84.018 51.5691 87.5402 52.0539 91.048 51.7992C94.1202 51.7214 97.1426 51.0059 99.9236 49.6982C101.639 51.3744 110.899 66.911 136.881 106.742C140.181 111.802 144.108 118.541 148.771 123.729C150.449 125.33 152.655 124.448 154.412 123.313C155.235 122.783 155.876 122.013 156.249 121.107C156.621 120.202 156.707 119.204 156.494 118.248C160.739 121.312 165.764 123.112 170.989 123.441C169.778 127.596 169.154 131.899 169.136 136.226C168.907 138.492 168.502 140.737 167.924 142.94C167.284 144.906 167.271 147.023 167.889 148.997C163.638 150.267 159.551 152.031 155.712 154.254C147.286 159.009 146.416 161.597 145.42 161.891C145.302 161.891 127.704 159.034 127.704 159.034C126.937 156.186 121.938 137.971 121.884 137.76C121.485 136.322 121.884 136.159 120.511 135.97L76.1705 131.224C75.3877 131.144 74.8436 130.953 74.3008 131.515C73.342 132.491 73.8367 133.37 74.1553 134.504L79.8153 154.845C73.9953 155.572 38.1831 159.109 33.8995 159.572C32.9417 159.629 31.9935 159.796 31.0739 160.07C30.2271 160.55 30.4046 161.344 30.4366 162.176C30.457 162.543 30.4773 230.751 30.4773 231.239C30.333 232.479 30.4268 233.735 30.7538 234.94C31.3358 235.534 32.0425 235.991 32.8228 236.279C33.9007 236.827 35.0138 237.303 36.1548 237.705C37.265 237.862 37.5196 237.495 43.1854 235.813C43.6568 235.668 43.6641 235.813 43.6961 234.713C44.6812 207.795 44.009 211.343 44.0337 171.304C53.8943 173.46 122.871 188.473 126.064 188.978C122.831 195.661 120.674 202.813 119.671 210.169C117.779 223.056 121.363 230.165 122.564 237.767C122.676 238.295 122.6 238.846 122.35 239.325C122.099 239.803 121.689 240.178 121.19 240.386C120.039 241.076 113.839 243.919 115.996 245.406C118.92 247.418 123.49 245.806 126.559 245.134C127.932 245.014 129.258 244.57 130.426 243.839C130.961 243.226 131.361 242.508 131.601 241.731C131.84 240.954 131.914 240.136 131.817 239.328C131.641 235.579 131.926 231.822 132.664 228.142C133.722 224.352 135.304 220.728 137.362 217.375C135.779 225.484 136.044 234.162 139.664 245.748C139.886 246.223 140 246.741 140 247.265C140 247.789 139.886 248.307 139.664 248.782C139.082 249.679 137.873 250.029 137.01 250.557C135.765 251.341 130.619 253.417 133.735 255.015C135.893 256.135 139.008 255.742 141.262 255.256C143.516 254.77 146.855 254.266 148.453 252.396C150.05 250.526 149.365 246.273 149.507 243.75C149.975 237.134 152.416 230.809 156.515 225.595C156.515 229.99 156.726 273.028 156.748 273.173C156.953 273.755 162.515 276.674 162.661 276.751C163.388 277.141 163.679 277.488 164.407 277.188C165.718 276.466 166.964 275.631 168.13 274.692C169.393 273.849 170.032 273.785 170.022 272.185C169.85 255.064 169.294 246.651 169.351 246.286C170.839 245.748 173.854 244.667 176.157 243.794C178.058 243.066 179.334 242.123 179.213 240.086C179.213 239.922 179.335 227.706 179.421 227.045C179.677 225.91 180.572 225.736 181.595 225.445C187.045 223.99 189.146 222.971 193.724 222.006C194.172 222.423 194.092 225.619 194.124 226.402C194.124 226.548 194.549 237.985 194.795 238.188C195.563 238.844 198.151 237.038 198.838 236.688C200.439 235.903 202.163 235.343 203.64 234.483C205.894 233.174 205.24 229.782 205.365 227.514C205.525 224.11 205.525 220.69 205.605 217.285C205.765 210.605 206.452 204.005 205.605 197.343C205.176 194.975 204.462 192.667 203.48 190.471C203.48 190.471 206.71 189.598 210.014 182.752C210.487 182.612 210.976 182.537 211.469 182.528C212.01 188.938 211.715 238.191 211.76 238.46C211.999 239.021 213.361 239.643 213.804 240.06C213.95 240.178 217.065 242.519 217.272 242.534C218.168 242.534 220.004 240.696 220.676 240.184C221.971 239.179 222.107 239.179 222.123 237.693V176.945C222.099 176.338 222.491 175.123 221.9 174.676ZM110.583 14.7794C114.577 22.069 115.063 31.221 110.001 38.3505C109.588 38.0611 109.226 37.7046 108.93 37.2957C108.594 36.6089 108.85 36.6555 109.441 36.0807C110.229 35.3954 111.709 33.9215 111.535 33.7629C111.36 33.6043 109.775 34.9706 109.009 35.7126C108.051 36.4488 108.354 36.4809 107.635 35.9687C106.968 35.2298 106.264 34.5256 105.525 33.8589C106.5 32.8841 107.853 32.2584 108.466 30.9664C109.217 29.3658 107.363 28.794 106.07 29.0326C103.622 29.6554 103.104 30.5255 102.649 30.4556C102.08 29.9997 101.545 29.5032 101.048 28.9701C102.043 28.313 102.998 27.5979 103.909 26.8283C105.313 25.6556 108.895 23.2155 108.71 21.1392C108.419 17.5133 99.3983 23.2926 96.2395 24.6749C95.9873 24.5133 95.7536 24.3244 95.5426 24.1118C96.3071 23.5059 96.8945 22.7054 97.2429 21.7942C97.5914 20.883 97.6881 19.8948 97.5228 18.9334C97.9666 18.1957 106.468 13.8612 105.089 11.4226C103.327 8.36712 96.4083 13.3884 93.539 14.9685C91.5399 14.5569 89.5023 14.3617 87.4614 14.3865C89.7894 12.7118 96.0358 7.76038 97.322 6.68512C98.0495 6.07548 99.2135 5.08461 98.9225 4.04573C103.943 6.15238 108.069 9.94975 110.583 14.7794V14.7794ZM105.345 33.389C104.514 32.5581 103.744 31.6633 102.949 30.831C103.731 30.3683 107.967 28.3226 108.254 30.1443C108.435 31.2952 106.119 32.8768 105.351 33.389H105.345ZM100.232 28.4419C99.1941 27.3579 98.0993 26.3297 96.9525 25.3617C98.7207 24.243 100.546 23.2178 102.422 22.2901C103.44 21.778 106.177 20.0843 107.599 20.6896C109.292 21.4069 106.224 23.6287 105.601 24.1715C103.897 25.6541 102.06 27.0786 100.238 28.4346L100.232 28.4419ZM92.5772 16.5836C93.7762 16.0132 95.4101 17.1656 96.0125 18.3107C96.1416 18.6017 96.2358 18.9069 96.2933 19.22C95.6473 19.7395 89.4912 23.5589 88.6065 24.2704L84.2662 24.6225C84.1442 23.6308 84.1096 22.6302 84.1629 21.6325C84.3157 21.535 90.5111 17.4813 92.5831 16.5763L92.5772 16.5836ZM84.2502 18.0386C84.4786 15.6916 87.3057 15.7819 89.2525 15.8008C90.1747 15.8137 91.0939 15.9077 91.9996 16.0816C89.3217 17.5013 86.7289 19.0759 84.2342 20.7973C84.1932 19.8755 84.2005 18.9523 84.256 18.0313L84.2502 18.0386ZM94.5328 15.1897C96.0642 14.145 97.6689 13.2118 99.3343 12.3975C100.516 11.8155 102.834 10.6078 104.136 11.1986C105.942 11.9814 103.305 14.0111 102.535 14.6178C100.906 15.9694 99.1931 17.2164 97.4064 18.3514C97.2109 17.6351 96.8493 16.9749 96.3511 16.4243C95.8529 15.8737 95.2319 15.4483 94.5386 15.1824L94.5328 15.1897ZM92.0811 23.9678C91.4562 24.1213 90.8107 24.1739 90.1692 24.1234C90.84 23.6127 91.5762 23.1966 92.247 22.6873C92.109 22.8659 92.0213 23.0782 91.9932 23.3021C91.965 23.526 91.9974 23.7533 92.0869 23.9605L92.0811 23.9678ZM86.9667 26.0441C85.9482 26.7803 84.8904 27.4845 83.9316 28.2833L83.9577 26.2463C84.9578 26.1185 85.9644 26.0485 86.9725 26.0368L86.9667 26.0441ZM88.2355 25.8433C89.7749 25.6294 90.6566 25.5057 92.2411 25.4213C92.3802 25.8389 92.4872 26.2664 92.5612 26.7003C92.4376 27.0553 90.1299 27.9952 83.5474 32.836C83.5474 32.4257 83.7293 30.0279 83.8035 29.6248C84.9297 28.4405 88.2413 25.836 88.2413 25.836L88.2355 25.8433ZM92.4783 27.4918C92.5205 27.6373 93.5506 31.7506 93.8766 33.2435C93.6074 33.68 87.9299 34.3696 83.4514 33.8778C83.6915 33.0849 90.2128 29.1883 92.4841 27.4845L92.4783 27.4918ZM92.7213 22.3687L96.2366 19.8122C96.2834 20.3013 96.2234 20.7947 96.0606 21.2582C95.8977 21.7218 95.6361 22.1444 95.2937 22.4967C95.0362 22.7543 94.7001 23.0555 94.7001 23.0555C94.3102 22.7543 93.3571 22.0384 92.7271 22.3614L92.7213 22.3687ZM96.4127 3.19164C92.2411 4.11848 88.4217 7.28313 84.9704 9.58496C81.0643 12.1377 77.3711 15.0023 73.9269 18.1506C72.5214 19.3961 70.7259 21.5699 68.8605 22.0661C66.7042 22.6248 67.0883 19.9737 67.7111 18.4402C69.0514 16.282 70.7161 14.343 72.6465 12.6914C73.2794 12.0279 80.1965 5.23011 81.8029 3.5001C86.5317 1.92469 91.6261 1.81464 96.4185 3.18437L96.4127 3.19164ZM65.5562 32.5741C64.2793 26.8187 65.0726 20.7973 67.7967 15.569C70.5207 10.3406 75.0011 6.24027 80.4497 3.98899C79.4661 4.85035 77.0857 7.22348 75.9304 8.37876C74.5555 9.75229 61.8037 21.0534 67.6529 22.6175C70.0813 23.2723 72.8909 19.5969 74.4914 18.2888C80.0598 13.3514 86.1979 9.09638 92.7751 5.61424C94.0565 4.70266 95.4984 4.04117 97.0252 3.66452C98.3987 3.50592 98.6257 4.31927 97.792 5.26503C96.1216 6.92957 86.9769 13.787 86.8299 13.8787C86.0852 14.2599 85.2508 14.4314 84.4161 14.3749C81.9033 14.5742 82.2016 14.9307 82.1448 17.6152C77.5987 21.1962 73.2464 25.0166 69.1064 29.0603C67.9555 30.2592 66.0858 31.7171 65.7978 33.4253C65.6996 33.1469 65.6189 32.8626 65.5562 32.5741ZM66.3274 34.2649C65.7861 32.6047 68.9799 30.0133 73.179 26.3103C76.2345 23.6244 79.4589 21.1799 82.6555 18.6875C82.6744 19.7846 82.6744 21.3342 82.6744 21.3342C82.6744 21.3342 81.3111 22.7194 75.1084 28.6587C74.5773 29.1752 66.9196 36.072 66.3303 34.2649H66.3274ZM66.355 35.2746C69.6463 35.0186 72.8953 32.238 75.0691 30.0468C77.5644 27.5311 79.9812 25.2962 82.6351 22.8096C82.6351 22.974 82.6846 28.2964 82.622 28.8639C81.5279 30.2665 76.1182 35.0666 73.4933 38.3491C72.1998 39.7735 71.823 42.1627 73.8076 42.1627C75.1986 42.1627 76.2811 40.8197 77.2283 39.9889C79.1533 38.3142 82.6992 35.1524 82.7181 35.1335C84.7551 36.0749 90.2361 35.5264 92.57 35.0186C86.0108 40.2188 83.0455 42.1961 77.547 47.9318C72.359 45.2691 68.3641 40.7501 66.3579 35.2746H66.355ZM74.0273 38.7783C76.6984 35.6619 79.5657 32.7192 82.6119 29.9682C82.5275 31.5687 82.3514 33.1692 82.1899 34.1965C81.6981 34.7523 75.7326 40.0922 75.5856 40.2115C72.744 42.5381 71.7662 41.3872 74.0302 38.7783H74.0273ZM78.2148 48.2519C83.0439 43.5038 88.1795 39.0778 93.5885 35.0026C94.1632 34.8105 95.0435 35.0026 94.85 35.8174C94.7379 36.3135 92.8522 37.4179 92.4536 37.7351C88.6109 40.6931 79.7004 48.6171 79.5563 48.7641C79.4123 48.7131 78.3603 48.3392 78.2148 48.2519ZM80.3551 49.0332C83.1808 45.905 94.7336 36.6904 94.882 36.5696C95.1541 37.9111 95.5847 39.2061 95.9208 40.5316C94.6862 41.2788 93.5061 42.1126 92.3895 43.027C91.6868 43.7923 90.6319 45.1818 91.8075 45.9821C92.9832 46.7823 95.9936 45.726 97.2245 45.1091C97.5444 46.3076 98.0874 47.435 98.8251 48.4323C94.5386 50.7822 84.1905 51.4442 80.3566 49.0332H80.3551ZM96.0562 41.2475C96.3174 42.3719 96.635 43.4825 97.0077 44.5751C96.82 45.3302 91.3434 47.0835 91.9574 44.5751C92.3284 43.0502 94.751 41.7989 96.0576 41.2475H96.0562ZM111.423 42.1787H111.311C111.086 43.4722 109.361 42.8014 108.61 43.5362C107.859 44.271 107.941 45.8555 107.009 46.7372C105.728 47.9478 104.804 46.8173 103.461 46.5452C101.86 46.2105 101.144 48.2563 99.7053 48.0482C98.2663 47.8401 98.0874 45.4786 97.76 44.4936C96.3879 40.3716 94.0599 31.7477 93.2058 28.3692C94.5488 28.9133 97.3613 28.0782 97.3613 26.2914C104.967 34.3667 100.607 29.8096 109.234 38.4378C110.321 39.4782 111.744 40.5956 111.424 42.1787H111.423ZM134.1 78.9337C133.841 78.2268 133.475 77.5638 133.015 76.968C132.807 76.6508 132.455 75.6745 132.088 75.4984C132.567 75.7385 132.983 76.3613 133.494 75.9146C134.004 75.4679 133.494 73.9881 134.549 74.3141C135.276 74.5396 135.491 76.3598 135.459 76.9025C135.458 77.3126 135.341 77.714 135.12 78.0595C134.899 78.4051 134.584 78.6806 134.212 78.8537L134.1 78.9337ZM144.824 117.608C144.316 116.934 143.897 116.204 143.386 115.53C146.677 115.866 151.041 113.548 151.696 110.097C152.132 110.96 153.296 112.636 153.056 113.589C152.7 114.857 151.885 115.946 150.769 116.645C149.394 117.736 146.222 119.457 144.824 117.608ZM155.691 120.167C155.345 121.291 154.644 122.271 153.693 122.962C152.742 123.653 151.592 124.017 150.417 124C148.946 123.985 146.779 120.455 145.564 118.762C148.765 120.217 152.914 117.35 153.567 114.09C154.719 115.687 156.026 118.117 155.691 120.167ZM169.95 135.554C170.063 131.74 170.545 127.946 171.389 124.225C172.553 120.588 176.793 114.264 176.191 113.869C175.354 113.326 171.338 122.616 171.256 122.762C169.539 122.703 167.839 122.409 166.202 121.889C162.962 120.82 159.836 119.433 156.868 117.749C155.674 116.662 152.304 109.671 138.86 86.331C138.412 85.5802 135.088 79.2989 134.8 79.4444C135.964 78.8522 136.206 77.4933 137.517 78.2455C142.077 81.06 146.425 84.2054 150.525 87.6565C153.32 90.1063 155.988 92.6992 158.515 95.4248C159.52 96.7762 160.829 97.8727 162.335 98.6259C167.555 99.9528 166.051 98.4091 178.651 101.841C182.231 102.8 185.57 104.137 189.103 105.256C189.675 105.545 190.307 105.695 190.948 105.695C191.589 105.695 192.222 105.545 192.794 105.256C193.272 104.896 193.66 104.431 193.929 103.897C194.105 103.595 195.288 101.293 195.064 100.942C194.84 100.592 194.121 100.766 193.641 100.638C192.883 100.391 192.175 100.013 191.549 99.5192C186.971 96.0272 188.033 89.3065 191.212 84.4497C192.088 83.0293 193.452 81.9778 195.048 81.4931C196.947 81.2399 198.87 81.2399 200.769 81.4931C200.769 87.6332 204.933 90.3279 205.803 92.5192C205.819 92.8904 205.867 93.2595 205.949 93.6221C206.251 93.9902 205.949 93.8636 206.385 93.7996C206.822 93.7356 207.168 93.2874 207.52 93.1914C208.478 92.9513 209.374 93.414 209.294 94.4689C209.148 96.26 206.641 97.827 205.09 96.6601C203.717 100.11 202.31 105.064 204.148 108.582C204.963 109.799 206.218 110.651 207.648 110.961C209.464 111.671 211.186 112.6 212.777 113.726C205.719 113.32 199.205 121.656 190.213 120.294C188.564 120.061 186.995 119.434 185.641 118.466C184.286 117.498 183.184 116.217 182.43 114.733C180.146 109.952 183.408 103.771 182.917 103.59C182.772 103.537 182.66 104.076 182.562 104.346C180.902 108.955 180.134 114.189 184.044 118.01C188.183 122.053 193.938 121.845 198.731 119.783C203.317 117.813 210.163 112.643 213.506 114.558C217.962 117.67 221.294 122.136 223.006 127.294C229.917 147.015 219.782 166.784 201.495 171.081C200.096 171.518 198.625 171.676 197.165 171.545C195.736 171.247 194.452 170.469 193.527 169.339C192.554 168.593 191.87 167.53 191.594 166.335C192.008 161.603 197.617 152.61 202.045 147.799C202.566 147.217 203.387 146.571 203.937 146.017C204.687 145.252 205.007 145.026 204.783 143.939C204.339 142.211 203.989 140.46 203.734 138.694C203.398 134.88 204.111 127.345 203.554 127.214C202.997 127.083 202.752 134.018 202.995 137.425C203.371 142.705 205.01 144.307 203.682 145.544C200.29 148.475 197.435 151.974 195.243 155.883C193.971 156.669 182.5 155.21 172.727 150.961C165.577 148.143 169.59 143.99 169.946 135.554H169.95ZM210.95 172.164C210 171.909 204.597 171.08 203.862 171.099C206.036 170.441 207.984 169.242 210.126 168.539C210.925 168.283 210.893 168.301 210.989 169.037C211.034 170.079 211.019 171.123 210.945 172.164H210.95ZM158.668 153.727C161.844 152.21 165.11 150.89 168.447 149.774C170.682 151.332 173.162 152.506 175.784 153.247C177.808 153.995 179.873 154.63 181.969 155.147C186.178 156.088 190.463 156.644 194.773 156.809C194.304 157.396 193.887 158.024 193.529 158.684C192.54 160.642 191.691 162.667 190.99 164.744C190.812 165.191 190.746 165.674 190.799 166.152C190.851 166.629 191.019 167.087 191.29 167.484C190.583 167.228 189.818 167.177 189.084 167.339C188.573 167.484 188.02 168.015 187.638 168.145C186.586 167.928 147.738 161.82 147.591 161.795C150.898 158.615 154.623 155.9 158.664 153.727H158.668ZM74.8872 131.692C75.0327 131.708 119.659 136.51 119.808 136.541C120.169 136.615 120.244 136.626 120.327 136.709C120.601 137 129.225 169.192 129.258 169.338C129.482 170.298 129.994 171.048 129.003 171.289C126.617 161.929 125.955 158.613 121.173 141.819C120.882 140.801 120.532 137.84 119.686 137.376C119.531 137.336 120.436 137.456 74.1888 132.471L74.8872 131.692ZM136.194 167.468C135.143 167.703 134.058 167.741 132.993 167.58C131.922 167.452 129.38 167.348 129.38 166.349L136.194 167.468ZM129.003 165.551L128.843 164.752L139.711 166.669C136.27 167.358 132.519 166.096 129.003 165.551ZM132.359 168.267L129.967 168.872L129.642 167.948L132.359 168.267ZM150.577 166.511C150.577 167.358 150.577 167.788 150.586 168.383C150.167 168.561 130.172 174.126 130.026 174.166C129.37 174.42 128.654 174.48 127.965 174.34C77.0072 164.279 84.1687 166.271 83.5373 166.079C82.8825 165.76 83.0105 165.44 82.8185 164.561C131.944 172.737 127.601 172.261 129.019 172.104C129.169 172.075 150.427 166.552 150.577 166.511V166.511ZM130.281 171.144C130.281 169.946 129.786 169.786 130.921 169.543L140.828 167.275C141.212 167.193 141.899 167.179 141.947 166.683C142.014 165.997 141.192 166.073 129.946 164.112C128.763 163.905 128.346 163.982 128.346 162.511L149.443 166.184L130.281 171.144ZM74.1262 133.031C109.119 136.814 82.9582 133.798 118.989 137.862C120.508 141.533 127.853 169.062 128.333 171.497C101.918 167.096 87.7568 164.827 82.9145 163.906C82.7792 163.749 74.1713 133.187 74.1262 133.031ZM43.0254 234.908L36.8416 236.906C36.6335 219.712 36.5375 174.324 36.5375 168.795C38.7315 169.322 40.8714 170.053 42.9293 170.978C43.3993 172.581 43.0254 172.68 43.0254 234.908ZM133.702 221.948C133.142 223.146 132.887 224.537 132.279 225.705C131.176 227.796 126.971 226.975 125.149 226.39C124.029 226.043 122.995 225.461 122.117 224.684C121.239 223.906 120.537 222.95 120.057 221.88C119.306 219.354 119.865 215.999 120.057 213.425C120.958 205.003 123.241 196.787 126.812 189.107C127.743 189.263 140.251 192.15 144.136 192.745C141.457 199.082 139.402 205.665 137.998 212.4C137.259 216.541 135.688 217.829 133.702 221.948V221.948ZM156.323 222.733C151.846 231.596 153 228.502 150.881 233.917C149.538 237.118 145.675 236.66 142.89 235.899C141.314 235.493 139.91 234.593 138.884 233.33C137.857 232.068 137.262 230.51 137.185 228.884C137.101 226.927 137.165 224.966 137.377 223.018C137.597 219.758 138.013 216.514 138.624 213.304C140.041 205.699 144.051 193.079 144.984 192.788C145.566 192.8 155.94 194.715 156.026 194.834C156.058 194.875 156.349 221.675 156.323 222.733V222.733ZM203.637 192.88C206.138 200.523 205.338 205.117 204.868 218.433C204.722 222.715 204.612 226.981 204.42 231.218C204.324 233.198 203.142 233.725 201.479 234.419C199.433 235.343 197.5 236.479 195.406 237.309C194.831 231.685 194.959 225.931 194.543 220.285C193.014 220.941 185.085 223.272 179.89 224.873C178.947 225.164 178.659 225.079 178.531 226.07C178.042 230.009 178.967 233.791 178.276 240.309C178.1 241.716 177.444 242.212 176.198 242.783C173.912 243.837 171.404 244.508 169.102 245.402C169.102 245.064 169.339 210.67 169.342 208.197C169.922 207.368 170.681 206.681 171.563 206.185C181.944 198.543 186.303 198.754 195.822 194.757C198.304 193.747 200.659 192.449 202.838 190.89C203.151 191.533 203.418 192.199 203.637 192.88ZM202.678 190.003C193.001 196.954 180.786 196.234 169.438 206.783V195.276C169.438 194.3 169.285 194.443 170.045 194.156C173.96 192.682 208.082 183.358 208.271 183.306C207.027 185.992 205.097 188.302 202.675 190.003H202.678ZM216.422 240.981C215.431 240.389 212.809 239 212.523 237.78C212.377 236.404 212.803 185.726 212.523 181.762L216.278 180.723C216.323 185.574 216.419 240.981 216.419 240.981H216.422ZM165.152 186.471C163.746 186.773 163.988 186.762 163.988 188.071C163.988 188.217 164.012 275.194 163.988 275.341C163.948 275.449 163.88 275.545 163.792 275.618C163.703 275.691 163.597 275.74 163.484 275.76C163.37 275.779 163.254 275.768 163.146 275.729C163.038 275.689 162.943 275.622 162.869 275.533C162.723 275.279 162.892 186.504 162.869 186.472C162.723 186.433 165.08 186.941 31.6661 160.391C31.8116 160.374 78.9787 155.498 79.8968 155.437C79.9361 155.582 82.5464 165.235 82.7894 166.08C83.156 166.768 84.3899 166.717 85.2498 166.879C132.285 175.638 128.667 175.162 129.805 174.838C150.846 168.82 150.958 169.185 151.066 168.827C151.119 168.503 151.137 168.173 151.118 167.845C151.118 167.573 151.211 166.314 151.028 166.162C150.637 165.836 128.068 161.976 128.068 161.976C127.843 161.283 127.66 160.577 127.519 159.863C140.032 161.824 187 169.085 187 169.085C187.752 169.211 188.503 169.812 189.222 169.812C188.305 170.26 187.501 170.91 186.872 171.714C186.249 172.754 186.872 173.315 188.007 173.154C187.24 173.232 186.73 174.398 187.304 174.925C187.669 175.129 188.083 175.228 188.501 175.211C188.918 175.195 189.323 175.063 189.67 174.831C189.286 175.151 189.67 175.581 189.989 175.725C190.597 176.016 191.589 175.359 191.971 175.037C193.001 174.132 194.792 171.982 194.511 171.836C194.23 171.691 193.033 173.412 192.267 174.164C192.011 174.372 190.66 175.552 190.213 175.202C189.485 174.62 193.105 172.164 189.485 173.953C189.101 174.147 187.68 174.818 188.014 173.953C188.222 173.427 190.763 172.789 190.572 172.18C190.382 171.57 186.305 173.699 187.648 171.878C188.094 171.27 190.012 170.518 190.108 169.841C190.204 169.165 188.508 169.617 188.414 168.771C188.321 167.924 189.616 167.867 190.127 167.841C190.587 167.845 191.046 167.889 191.499 167.972C191.882 168.18 192.346 169.075 192.618 169.411C193.205 170.279 193.985 170.999 194.897 171.515C195.809 172.03 196.829 172.327 197.875 172.382C199.873 172.479 201.617 171.454 203.564 171.775C224.768 175.274 217.427 174.217 219.034 174.477C207.165 177.218 171.241 185.16 165.152 186.471Z" fill="#8330C3"/>
<path d="M221.9 174.676C220.708 174.204 211.837 172.34 211.808 172.297C211.572 170.611 211.682 169.898 211.449 168.829C211.38 168.546 211.381 168.25 211.452 167.967C211.522 167.684 211.66 167.423 211.853 167.205C215.88 164.124 219.275 160.296 221.852 155.93C228.211 144.207 227.054 127.637 217.713 117.372C216.722 116.268 215.508 115.439 214.512 114.416C214.843 114.282 215.135 114.067 215.36 113.791C215.586 113.514 215.737 113.185 215.801 112.833C215.865 112.482 215.839 112.121 215.725 111.782C215.611 111.444 215.413 111.14 215.15 110.899C215.811 110.848 216.444 110.609 216.975 110.212C217.505 109.814 217.912 109.274 218.146 108.654C218.381 108.033 218.434 107.359 218.3 106.71C218.166 106.061 217.85 105.463 217.388 104.987C219.785 104.987 222.19 101.566 219.464 100.031C222.665 99.7127 223.716 94.8865 220.583 93.6395C221.194 93.5048 221.739 93.1611 222.123 92.6678C222.507 92.1745 222.707 91.5624 222.688 90.9373C222.67 90.3123 222.433 89.7134 222.02 89.244C221.607 88.7747 221.042 88.4643 220.425 88.3666C220.923 87.7731 221.263 87.0635 221.414 86.3035C221.565 85.5435 221.521 84.7577 221.288 84.019C221.027 83.3681 220.528 82.8407 219.893 82.5436C219.258 82.2464 218.534 82.2017 217.867 82.4185C218.169 81.7021 218.238 80.9085 218.063 80.1508C217.888 79.3931 217.478 78.7101 216.892 78.1989C216.133 77.6769 215.275 77.3143 214.372 77.1329C213.468 76.9516 212.537 76.9554 211.635 77.1441C211.627 76.4379 211.387 75.7541 210.95 75.1991C210.514 74.6441 209.906 74.2491 209.221 74.0754C208.119 73.8492 206.975 73.9504 205.93 74.3664C205.202 74.5905 205.493 74.624 205.018 74.2209C204.028 73.3887 203.534 72.3745 201.998 72.4138C201.072 72.4386 199.585 73.1006 199.425 74.1598C198.91 73.6347 198.292 73.2215 197.61 72.9461C196.928 72.6707 196.196 72.539 195.461 72.5593C194.392 72.5593 192.921 72.9595 193.193 74.349C192.696 74.0192 192.11 73.8482 191.514 73.8587C190.917 73.8692 190.338 74.0607 189.853 74.4078C189.367 74.7549 188.999 75.2413 188.797 75.8024C188.594 76.3636 188.567 76.973 188.719 77.55C185.954 76.4151 179.865 81.1774 182.965 83.7818C179.764 83.4806 176.348 89.1843 179.929 90.9739C179.247 91.1358 178.631 91.5021 178.164 92.0238C177.696 92.5454 177.399 93.1975 177.312 93.8927C177.225 94.5879 177.352 95.2931 177.677 95.9138C178.002 96.5345 178.509 97.0411 179.13 97.3658C176.748 98.3247 179.13 100.851 180.408 101.361C180.307 101.391 180.219 101.455 180.161 101.543C180.102 101.63 180.076 101.735 180.087 101.84C166.402 97.7354 163.609 99.5265 160.912 97.0152C159.297 95.5121 157.955 93.9145 156.436 92.3955C151.915 87.8708 146.959 83.8032 141.639 80.252C140.694 79.5637 137.531 76.7352 136.364 77.582C136.108 77.2139 136.204 76.3831 136.092 75.9815C135.656 73.7481 133.223 72.6714 133.182 75.4388C131.767 74.0202 130.567 72.4026 129.619 70.6372C113.135 43.1419 114.101 43.8359 112.351 40.9797C111.986 40.5391 111.675 40.0565 111.424 39.5422C111.279 38.9602 111.776 38.3782 112.063 37.7671C118.228 25.1652 113.863 11.6525 102.805 5.11808C86.1839 -5.19941 64.9218 6.5047 64.1201 25.9742C64.0123 29.4896 64.6438 32.9885 65.9739 36.2443C67.3039 39.5002 69.3028 42.4405 71.8412 44.8749C74.3796 47.3093 77.4008 49.1835 80.7094 50.3763C84.018 51.5691 87.5402 52.0539 91.048 51.7992C94.1202 51.7214 97.1426 51.0059 99.9236 49.6982C101.639 51.3744 110.899 66.911 136.881 106.742C140.181 111.802 144.108 118.541 148.771 123.729C150.449 125.33 152.655 124.448 154.412 123.313C155.235 122.783 155.876 122.013 156.249 121.107C156.621 120.202 156.707 119.204 156.494 118.248C160.739 121.312 165.764 123.112 170.989 123.441C169.778 127.596 169.154 131.899 169.136 136.226C168.907 138.492 168.502 140.737 167.924 142.94C167.284 144.906 167.271 147.023 167.889 148.997C163.638 150.267 159.551 152.031 155.712 154.254C147.286 159.009 146.416 161.597 145.42 161.891C145.302 161.891 127.704 159.034 127.704 159.034C126.937 156.186 121.938 137.971 121.884 137.76C121.485 136.322 121.884 136.159 120.511 135.97L76.1705 131.224C75.3877 131.144 74.8436 130.953 74.3008 131.515C73.342 132.491 73.8367 133.37 74.1553 134.504L79.8153 154.845C73.9953 155.572 38.1831 159.109 33.8995 159.572C32.9417 159.629 31.9935 159.796 31.0739 160.07C30.2271 160.55 30.4046 161.344 30.4366 162.176C30.457 162.543 30.4773 230.751 30.4773 231.239C30.333 232.479 30.4268 233.735 30.7538 234.94C31.3358 235.534 32.0425 235.991 32.8228 236.279C33.9007 236.827 35.0138 237.303 36.1548 237.705C37.265 237.862 37.5196 237.495 43.1854 235.813C43.6568 235.668 43.6641 235.813 43.6961 234.713C44.6812 207.795 44.009 211.343 44.0337 171.304C53.8943 173.46 122.871 188.473 126.064 188.978C122.831 195.661 120.674 202.813 119.671 210.169C117.779 223.056 121.363 230.165 122.564 237.767C122.676 238.295 122.6 238.846 122.35 239.325C122.099 239.803 121.689 240.178 121.19 240.386C120.039 241.076 113.839 243.919 115.996 245.406C118.92 247.418 123.49 245.806 126.559 245.134C127.932 245.014 129.258 244.57 130.426 243.839C130.961 243.226 131.361 242.508 131.601 241.731C131.84 240.954 131.914 240.136 131.817 239.328C131.641 235.579 131.926 231.822 132.664 228.142C133.722 224.352 135.304 220.728 137.362 217.375C135.779 225.484 136.044 234.162 139.664 245.748C139.886 246.223 140 246.741 140 247.265C140 247.789 139.886 248.307 139.664 248.782C139.082 249.679 137.873 250.029 137.01 250.557C135.765 251.341 130.619 253.417 133.735 255.015C135.893 256.135 139.008 255.742 141.262 255.256C143.516 254.77 146.855 254.266 148.453 252.396C150.05 250.526 149.365 246.273 149.507 243.75C149.975 237.134 152.416 230.809 156.515 225.595C156.515 229.99 156.726 273.028 156.748 273.173C156.953 273.755 162.515 276.674 162.661 276.751C163.388 277.141 163.679 277.488 164.407 277.188C165.718 276.466 166.964 275.631 168.13 274.692C169.393 273.849 170.032 273.785 170.022 272.185C169.85 255.064 169.294 246.651 169.351 246.286C170.839 245.748 173.854 244.667 176.157 243.794C178.058 243.066 179.334 242.123 179.213 240.086C179.213 239.922 179.335 227.706 179.421 227.045C179.677 225.91 180.572 225.736 181.595 225.445C187.045 223.99 189.146 222.971 193.724 222.006C194.172 222.423 194.092 225.619 194.124 226.402C194.124 226.548 194.549 237.985 194.795 238.188C195.563 238.844 198.151 237.038 198.838 236.688C200.439 235.903 202.163 235.343 203.64 234.483C205.894 233.174 205.24 229.782 205.365 227.514C205.525 224.11 205.525 220.69 205.605 217.285C205.765 210.605 206.452 204.005 205.605 197.343C205.176 194.975 204.462 192.667 203.48 190.471C203.48 190.471 206.71 189.598 210.014 182.752C210.487 182.612 210.976 182.537 211.469 182.528C212.01 188.938 211.715 238.191 211.76 238.46C211.999 239.021 213.361 239.643 213.804 240.06C213.95 240.178 217.065 242.519 217.272 242.534C218.168 242.534 220.004 240.696 220.676 240.184C221.971 239.179 222.107 239.179 222.123 237.693V176.945C222.099 176.338 222.491 175.123 221.9 174.676ZM110.583 14.7794C114.577 22.069 115.063 31.221 110.001 38.3505C109.588 38.0611 109.226 37.7046 108.93 37.2957C108.594 36.6089 108.85 36.6555 109.441 36.0807C110.229 35.3954 111.709 33.9215 111.535 33.7629C111.36 33.6043 109.775 34.9706 109.009 35.7126C108.051 36.4488 108.354 36.4809 107.635 35.9687C106.968 35.2298 106.264 34.5256 105.525 33.8589C106.5 32.8841 107.853 32.2584 108.466 30.9664C109.217 29.3658 107.363 28.794 106.07 29.0326C103.622 29.6554 103.104 30.5255 102.649 30.4556C102.08 29.9997 101.545 29.5032 101.048 28.9701C102.043 28.313 102.998 27.5979 103.909 26.8283C105.313 25.6556 108.895 23.2155 108.71 21.1392C108.419 17.5133 99.3983 23.2926 96.2395 24.6749C95.9873 24.5133 95.7536 24.3244 95.5426 24.1118C96.3071 23.5059 96.8945 22.7054 97.2429 21.7942C97.5914 20.883 97.6881 19.8948 97.5228 18.9334C97.9666 18.1957 106.468 13.8612 105.089 11.4226C103.327 8.36712 96.4083 13.3884 93.539 14.9685C91.5399 14.5569 89.5023 14.3617 87.4614 14.3865C89.7894 12.7118 96.0358 7.76038 97.322 6.68512C98.0495 6.07548 99.2135 5.08461 98.9225 4.04573C103.943 6.15238 108.069 9.94975 110.583 14.7794V14.7794ZM105.345 33.389C104.514 32.5581 103.744 31.6633 102.949 30.831C103.731 30.3683 107.967 28.3226 108.254 30.1443C108.435 31.2952 106.119 32.8768 105.351 33.389H105.345ZM100.232 28.4419C99.1941 27.3579 98.0993 26.3297 96.9525 25.3617C98.7207 24.243 100.546 23.2178 102.422 22.2901C103.44 21.778 106.177 20.0843 107.599 20.6896C109.292 21.4069 106.224 23.6287 105.601 24.1715C103.897 25.6541 102.06 27.0786 100.238 28.4346L100.232 28.4419ZM92.5772 16.5836C93.7762 16.0132 95.4101 17.1656 96.0125 18.3107C96.1416 18.6017 96.2358 18.9069 96.2933 19.22C95.6473 19.7395 89.4912 23.5589 88.6065 24.2704L84.2662 24.6225C84.1442 23.6308 84.1096 22.6302 84.1629 21.6325C84.3157 21.535 90.5111 17.4813 92.5831 16.5763L92.5772 16.5836ZM84.2502 18.0386C84.4786 15.6916 87.3057 15.7819 89.2525 15.8008C90.1747 15.8137 91.0939 15.9077 91.9996 16.0816C89.3217 17.5013 86.7289 19.0759 84.2342 20.7973C84.1932 19.8755 84.2005 18.9523 84.256 18.0313L84.2502 18.0386ZM94.5328 15.1897C96.0642 14.145 97.6689 13.2118 99.3343 12.3975C100.516 11.8155 102.834 10.6078 104.136 11.1986C105.942 11.9814 103.305 14.0111 102.535 14.6178C100.906 15.9694 99.1931 17.2164 97.4064 18.3514C97.2109 17.6351 96.8493 16.9749 96.3511 16.4243C95.8529 15.8737 95.2319 15.4483 94.5386 15.1824L94.5328 15.1897ZM92.0811 23.9678C91.4562 24.1213 90.8107 24.1739 90.1692 24.1234C90.84 23.6127 91.5762 23.1966 92.247 22.6873C92.109 22.8659 92.0213 23.0782 91.9932 23.3021C91.965 23.526 91.9974 23.7533 92.0869 23.9605L92.0811 23.9678ZM86.9667 26.0441C85.9482 26.7803 84.8904 27.4845 83.9316 28.2833L83.9577 26.2463C84.9578 26.1185 85.9644 26.0485 86.9725 26.0368L86.9667 26.0441ZM88.2355 25.8433C89.7749 25.6294 90.6566 25.5057 92.2411 25.4213C92.3802 25.8389 92.4872 26.2664 92.5612 26.7003C92.4376 27.0553 90.1299 27.9952 83.5474 32.836C83.5474 32.4257 83.7293 30.0279 83.8035 29.6248C84.9297 28.4405 88.2413 25.836 88.2413 25.836L88.2355 25.8433ZM92.4783 27.4918C92.5205 27.6373 93.5506 31.7506 93.8766 33.2435C93.6074 33.68 87.9299 34.3696 83.4514 33.8778C83.6915 33.0849 90.2128 29.1883 92.4841 27.4845L92.4783 27.4918ZM92.7213 22.3687L96.2366 19.8122C96.2834 20.3013 96.2234 20.7947 96.0606 21.2582C95.8977 21.7218 95.6361 22.1444 95.2937 22.4967C95.0362 22.7543 94.7001 23.0555 94.7001 23.0555C94.3102 22.7543 93.3571 22.0384 92.7271 22.3614L92.7213 22.3687ZM96.4127 3.19164C92.2411 4.11848 88.4217 7.28313 84.9704 9.58496C81.0643 12.1377 77.3711 15.0023 73.9269 18.1506C72.5214 19.3961 70.7259 21.5699 68.8605 22.0661C66.7042 22.6248 67.0883 19.9737 67.7111 18.4402C69.0514 16.282 70.7161 14.343 72.6465 12.6914C73.2794 12.0279 80.1965 5.23011 81.8029 3.5001C86.5317 1.92469 91.6261 1.81464 96.4185 3.18437L96.4127 3.19164ZM65.5562 32.5741C64.2793 26.8187 65.0726 20.7973 67.7967 15.569C70.5207 10.3406 75.0011 6.24027 80.4497 3.98899C79.4661 4.85035 77.0857 7.22348 75.9304 8.37876C74.5555 9.75229 61.8037 21.0534 67.6529 22.6175C70.0813 23.2723 72.8909 19.5969 74.4914 18.2888C80.0598 13.3514 86.1979 9.09638 92.7751 5.61424C94.0565 4.70266 95.4984 4.04117 97.0252 3.66452C98.3987 3.50592 98.6257 4.31927 97.792 5.26503C96.1216 6.92957 86.9769 13.787 86.8299 13.8787C86.0852 14.2599 85.2508 14.4314 84.4161 14.3749C81.9033 14.5742 82.2016 14.9307 82.1448 17.6152C77.5987 21.1962 73.2464 25.0166 69.1064 29.0603C67.9555 30.2592 66.0858 31.7171 65.7978 33.4253C65.6996 33.1469 65.6189 32.8626 65.5562 32.5741ZM66.3274 34.2649C65.7861 32.6047 68.9799 30.0133 73.179 26.3103C76.2345 23.6244 79.4589 21.1799 82.6555 18.6875C82.6744 19.7846 82.6744 21.3342 82.6744 21.3342C82.6744 21.3342 81.3111 22.7194 75.1084 28.6587C74.5773 29.1752 66.9196 36.072 66.3303 34.2649H66.3274ZM66.355 35.2746C69.6463 35.0186 72.8953 32.238 75.0691 30.0468C77.5644 27.5311 79.9812 25.2962 82.6351 22.8096C82.6351 22.974 82.6846 28.2964 82.622 28.8639C81.5279 30.2665 76.1182 35.0666 73.4933 38.3491C72.1998 39.7735 71.823 42.1627 73.8076 42.1627C75.1986 42.1627 76.2811 40.8197 77.2283 39.9889C79.1533 38.3142 82.6992 35.1524 82.7181 35.1335C84.7551 36.0749 90.2361 35.5264 92.57 35.0186C86.0108 40.2188 83.0455 42.1961 77.547 47.9318C72.359 45.2691 68.3641 40.7501 66.3579 35.2746H66.355ZM74.0273 38.7783C76.6984 35.6619 79.5657 32.7192 82.6119 29.9682C82.5275 31.5687 82.3514 33.1692 82.1899 34.1965C81.6981 34.7523 75.7326 40.0922 75.5856 40.2115C72.744 42.5381 71.7662 41.3872 74.0302 38.7783H74.0273ZM78.2148 48.2519C83.0439 43.5038 88.1795 39.0778 93.5885 35.0026C94.1632 34.8105 95.0435 35.0026 94.85 35.8174C94.7379 36.3135 92.8522 37.4179 92.4536 37.7351C88.6109 40.6931 79.7004 48.6171 79.5563 48.7641C79.4123 48.7131 78.3603 48.3392 78.2148 48.2519ZM80.3551 49.0332C83.1808 45.905 94.7336 36.6904 94.882 36.5696C95.1541 37.9111 95.5847 39.2061 95.9208 40.5316C94.6862 41.2788 93.5061 42.1126 92.3895 43.027C91.6868 43.7923 90.6319 45.1818 91.8075 45.9821C92.9832 46.7823 95.9936 45.726 97.2245 45.1091C97.5444 46.3076 98.0874 47.435 98.8251 48.4323C94.5386 50.7822 84.1905 51.4442 80.3566 49.0332H80.3551ZM96.0562 41.2475C96.3174 42.3719 96.635 43.4825 97.0077 44.5751C96.82 45.3302 91.3434 47.0835 91.9574 44.5751C92.3284 43.0502 94.751 41.7989 96.0576 41.2475H96.0562ZM111.423 42.1787H111.311C111.086 43.4722 109.361 42.8014 108.61 43.5362C107.859 44.271 107.941 45.8555 107.009 46.7372C105.728 47.9478 104.804 46.8173 103.461 46.5452C101.86 46.2105 101.144 48.2563 99.7053 48.0482C98.2663 47.8401 98.0874 45.4786 97.76 44.4936C96.3879 40.3716 94.0599 31.7477 93.2058 28.3692C94.5488 28.9133 97.3613 28.0782 97.3613 26.2914C104.967 34.3667 100.607 29.8096 109.234 38.4378C110.321 39.4782 111.744 40.5956 111.424 42.1787H111.423ZM134.1 78.9337C133.841 78.2268 133.475 77.5638 133.015 76.968C132.807 76.6508 132.455 75.6745 132.088 75.4984C132.567 75.7385 132.983 76.3613 133.494 75.9146C134.004 75.4679 133.494 73.9881 134.549 74.3141C135.276 74.5396 135.491 76.3598 135.459 76.9025C135.458 77.3126 135.341 77.714 135.12 78.0595C134.899 78.4051 134.584 78.6806 134.212 78.8537L134.1 78.9337ZM144.824 117.608C144.316 116.934 143.897 116.204 143.386 115.53C146.677 115.866 151.041 113.548 151.696 110.097C152.132 110.96 153.296 112.636 153.056 113.589C152.7 114.857 151.885 115.946 150.769 116.645C149.394 117.736 146.222 119.457 144.824 117.608ZM155.691 120.167C155.345 121.291 154.644 122.271 153.693 122.962C152.742 123.653 151.592 124.017 150.417 124C148.946 123.985 146.779 120.455 145.564 118.762C148.765 120.217 152.914 117.35 153.567 114.09C154.719 115.687 156.026 118.117 155.691 120.167ZM169.95 135.554C170.063 131.74 170.545 127.946 171.389 124.225C172.553 120.588 176.793 114.264 176.191 113.869C175.354 113.326 171.338 122.616 171.256 122.762C169.539 122.703 167.839 122.409 166.202 121.889C162.962 120.82 159.836 119.433 156.868 117.749C155.674 116.662 152.304 109.671 138.86 86.331C138.412 85.5802 135.088 79.2989 134.8 79.4444C135.964 78.8522 136.206 77.4933 137.517 78.2455C142.077 81.06 146.425 84.2054 150.525 87.6565C153.32 90.1063 155.988 92.6992 158.515 95.4248C159.52 96.7762 160.829 97.8727 162.335 98.6259C167.555 99.9528 166.051 98.4091 178.651 101.841C182.231 102.8 185.57 104.137 189.103 105.256C189.675 105.545 190.307 105.695 190.948 105.695C191.589 105.695 192.222 105.545 192.794 105.256C193.272 104.896 193.66 104.431 193.929 103.897C194.105 103.595 195.288 101.293 195.064 100.942C194.84 100.592 194.121 100.766 193.641 100.638C192.883 100.391 192.175 100.013 191.549 99.5192C186.971 96.0272 188.033 89.3065 191.212 84.4497C192.088 83.0293 193.452 81.9778 195.048 81.4931C196.947 81.2399 198.87 81.2399 200.769 81.4931C200.769 87.6332 204.933 90.3279 205.803 92.5192C205.819 92.8904 205.867 93.2595 205.949 93.6221C206.251 93.9902 205.949 93.8636 206.385 93.7996C206.822 93.7356 207.168 93.2874 207.52 93.1914C208.478 92.9513 209.374 93.414 209.294 94.4689C209.148 96.26 206.641 97.827 205.09 96.6601C203.717 100.11 202.31 105.064 204.148 108.582C204.963 109.799 206.218 110.651 207.648 110.961C209.464 111.671 211.186 112.6 212.777 113.726C205.719 113.32 199.205 121.656 190.213 120.294C188.564 120.061 186.995 119.434 185.641 118.466C184.286 117.498 183.184 116.217 182.43 114.733C180.146 109.952 183.408 103.771 182.917 103.59C182.772 103.537 182.66 104.076 182.562 104.346C180.902 108.955 180.134 114.189 184.044 118.01C188.183 122.053 193.938 121.845 198.731 119.783C203.317 117.813 210.163 112.643 213.506 114.558C217.962 117.67 221.294 122.136 223.006 127.294C229.917 147.015 219.782 166.784 201.495 171.081C200.096 171.518 198.625 171.676 197.165 171.545C195.736 171.247 194.452 170.469 193.527 169.339C192.554 168.593 191.87 167.53 191.594 166.335C192.008 161.603 197.617 152.61 202.045 147.799C202.566 147.217 203.387 146.571 203.937 146.017C204.687 145.252 205.007 145.026 204.783 143.939C204.339 142.211 203.989 140.46 203.734 138.694C203.398 134.88 204.111 127.345 203.554 127.214C202.997 127.083 202.752 134.018 202.995 137.425C203.371 142.705 205.01 144.307 203.682 145.544C200.29 148.475 197.435 151.974 195.243 155.883C193.971 156.669 182.5 155.21 172.727 150.961C165.577 148.143 169.59 143.99 169.946 135.554H169.95ZM210.95 172.164C210 171.909 204.597 171.08 203.862 171.099C206.036 170.441 207.984 169.242 210.126 168.539C210.925 168.283 210.893 168.301 210.989 169.037C211.034 170.079 211.019 171.123 210.945 172.164H210.95ZM158.668 153.727C161.844 152.21 165.11 150.89 168.447 149.774C170.682 151.332 173.162 152.506 175.784 153.247C177.808 153.995 179.873 154.63 181.969 155.147C186.178 156.088 190.463 156.644 194.773 156.809C194.304 157.396 193.887 158.024 193.529 158.684C192.54 160.642 191.691 162.667 190.99 164.744C190.812 165.191 190.746 165.674 190.799 166.152C190.851 166.629 191.019 167.087 191.29 167.484C190.583 167.228 189.818 167.177 189.084 167.339C188.573 167.484 188.02 168.015 187.638 168.145C186.586 167.928 147.738 161.82 147.591 161.795C150.898 158.615 154.623 155.9 158.664 153.727H158.668ZM74.8872 131.692C75.0327 131.708 119.659 136.51 119.808 136.541C120.169 136.615 120.244 136.626 120.327 136.709C120.601 137 129.225 169.192 129.258 169.338C129.482 170.298 129.994 171.048 129.003 171.289C126.617 161.929 125.955 158.613 121.173 141.819C120.882 140.801 120.532 137.84 119.686 137.376C119.531 137.336 120.436 137.456 74.1888 132.471L74.8872 131.692ZM136.194 167.468C135.143 167.703 134.058 167.741 132.993 167.58C131.922 167.452 129.38 167.348 129.38 166.349L136.194 167.468ZM129.003 165.551L128.843 164.752L139.711 166.669C136.27 167.358 132.519 166.096 129.003 165.551ZM132.359 168.267L129.967 168.872L129.642 167.948L132.359 168.267ZM150.577 166.511C150.577 167.358 150.577 167.788 150.586 168.383C150.167 168.561 130.172 174.126 130.026 174.166C129.37 174.42 128.654 174.48 127.965 174.34C77.0072 164.279 84.1687 166.271 83.5373 166.079C82.8825 165.76 83.0105 165.44 82.8185 164.561C131.944 172.737 127.601 172.261 129.019 172.104C129.169 172.075 150.427 166.552 150.577 166.511V166.511ZM130.281 171.144C130.281 169.946 129.786 169.786 130.921 169.543L140.828 167.275C141.212 167.193 141.899 167.179 141.947 166.683C142.014 165.997 141.192 166.073 129.946 164.112C128.763 163.905 128.346 163.982 128.346 162.511L149.443 166.184L130.281 171.144ZM74.1262 133.031C109.119 136.814 82.9582 133.798 118.989 137.862C120.508 141.533 127.853 169.062 128.333 171.497C101.918 167.096 87.7568 164.827 82.9145 163.906C82.7792 163.749 74.1713 133.187 74.1262 133.031ZM43.0254 234.908L36.8416 236.906C36.6335 219.712 36.5375 174.324 36.5375 168.795C38.7315 169.322 40.8714 170.053 42.9293 170.978C43.3993 172.581 43.0254 172.68 43.0254 234.908ZM133.702 221.948C133.142 223.146 132.887 224.537 132.279 225.705C131.176 227.796 126.971 226.975 125.149 226.39C124.029 226.043 122.995 225.461 122.117 224.684C121.239 223.906 120.537 222.95 120.057 221.88C119.306 219.354 119.865 215.999 120.057 213.425C120.958 205.003 123.241 196.787 126.812 189.107C127.743 189.263 140.251 192.15 144.136 192.745C141.457 199.082 139.402 205.665 137.998 212.4C137.259 216.541 135.688 217.829 133.702 221.948V221.948ZM156.323 222.733C151.846 231.596 153 228.502 150.881 233.917C149.538 237.118 145.675 236.66 142.89 235.899C141.314 235.493 139.91 234.593 138.884 233.33C137.857 232.068 137.262 230.51 137.185 228.884C137.101 226.927 137.165 224.966 137.377 223.018C137.597 219.758 138.013 216.514 138.624 213.304C140.041 205.699 144.051 193.079 144.984 192.788C145.566 192.8 155.94 194.715 156.026 194.834C156.058 194.875 156.349 221.675 156.323 222.733V222.733ZM203.637 192.88C206.138 200.523 205.338 205.117 204.868 218.433C204.722 222.715 204.612 226.981 204.42 231.218C204.324 233.198 203.142 233.725 201.479 234.419C199.433 235.343 197.5 236.479 195.406 237.309C194.831 231.685 194.959 225.931 194.543 220.285C193.014 220.941 185.085 223.272 179.89 224.873C178.947 225.164 178.659 225.079 178.531 226.07C178.042 230.009 178.967 233.791 178.276 240.309C178.1 241.716 177.444 242.212 176.198 242.783C173.912 243.837 171.404 244.508 169.102 245.402C169.102 245.064 169.339 210.67 169.342 208.197C169.922 207.368 170.681 206.681 171.563 206.185C181.944 198.543 186.303 198.754 195.822 194.757C198.304 193.747 200.659 192.449 202.838 190.89C203.151 191.533 203.418 192.199 203.637 192.88ZM202.678 190.003C193.001 196.954 180.786 196.234 169.438 206.783V195.276C169.438 194.3 169.285 194.443 170.045 194.156C173.96 192.682 208.082 183.358 208.271 183.306C207.027 185.992 205.097 188.302 202.675 190.003H202.678ZM216.422 240.981C215.431 240.389 212.809 239 212.523 237.78C212.377 236.404 212.803 185.726 212.523 181.762L216.278 180.723C216.323 185.574 216.419 240.981 216.419 240.981H216.422ZM165.152 186.471C163.746 186.773 163.988 186.762 163.988 188.071C163.988 188.217 164.012 275.194 163.988 275.341C163.948 275.449 163.88 275.545 163.792 275.618C163.703 275.691 163.597 275.74 163.484 275.76C163.37 275.779 163.254 275.768 163.146 275.729C163.038 275.689 162.943 275.622 162.869 275.533C162.723 275.279 162.892 186.504 162.869 186.472C162.723 186.433 165.08 186.941 31.6661 160.391C31.8116 160.374 78.9787 155.498 79.8968 155.437C79.9361 155.582 82.5464 165.235 82.7894 166.08C83.156 166.768 84.3899 166.717 85.2498 166.879C132.285 175.638 128.667 175.162 129.805 174.838C150.846 168.82 150.958 169.185 151.066 168.827C151.119 168.503 151.137 168.173 151.118 167.845C151.118 167.573 151.211 166.314 151.028 166.162C150.637 165.836 128.068 161.976 128.068 161.976C127.843 161.283 127.66 160.577 127.519 159.863C140.032 161.824 187 169.085 187 169.085C187.752 169.211 188.503 169.812 189.222 169.812C188.305 170.26 187.501 170.91 186.872 171.714C186.249 172.754 186.872 173.315 188.007 173.154C187.24 173.232 186.73 174.398 187.304 174.925C187.669 175.129 188.083 175.228 188.501 175.211C188.918 175.195 189.323 175.063 189.67 174.831C189.286 175.151 189.67 175.581 189.989 175.725C190.597 176.016 191.589 175.359 191.971 175.037C193.001 174.132 194.792 171.982 194.511 171.836C194.23 171.691 193.033 173.412 192.267 174.164C192.011 174.372 190.66 175.552 190.213 175.202C189.485 174.62 193.105 172.164 189.485 173.953C189.101 174.147 187.68 174.818 188.014 173.953C188.222 173.427 190.763 172.789 190.572 172.18C190.382 171.57 186.305 173.699 187.648 171.878C188.094 171.27 190.012 170.518 190.108 169.841C190.204 169.165 188.508 169.617 188.414 168.771C188.321 167.924 189.616 167.867 190.127 167.841C190.587 167.845 191.046 167.889 191.499 167.972C191.882 168.18 192.346 169.075 192.618 169.411C193.205 170.279 193.985 170.999 194.897 171.515C195.809 172.03 196.829 172.327 197.875 172.382C199.873 172.479 201.617 171.454 203.564 171.775C224.768 175.274 217.427 174.217 219.034 174.477C207.165 177.218 171.241 185.16 165.152 186.471Z" stroke="#8330C3" mask="url(#path-22-outside-1_656_314)"/>
</svg>
